<svg width="63" height="62" viewBox="0 0 63 62" fill="none" xmlns="http://www.w3.org/2000/svg">
<path d="M33.4197 0C34.1564 0.272314 34.7562 0.705908 34.8753 1.53095C34.9693 2.18256 35.0269 2.84957 34.9555 3.50928C34.8664 4.33433 35.0204 5.1537 34.9612 5.9755C34.9482 6.15948 35.0495 6.19676 35.2035 6.22188C36.7912 6.48042 38.3562 6.82892 39.8564 7.42379C40.0655 7.50646 40.1676 7.44973 40.2746 7.26251C40.8824 6.19514 41.504 5.13587 42.1184 4.07174C42.8178 2.86254 43.8535 2.57401 45.0571 3.26128C46.1123 3.86345 47.1691 4.46319 48.2187 5.07509C49.2236 5.66024 49.5259 6.67169 48.9951 7.71231C48.4124 8.85425 47.8069 9.98565 47.2064 11.1187C47.1091 11.3018 47.0573 11.4331 47.2615 11.6001C48.4456 12.5678 49.5024 13.6684 50.4952 14.8281C50.7205 15.0915 50.8932 15.1304 51.2011 14.9367C52.185 14.3208 53.1908 13.7405 54.1893 13.1472C55.3742 12.443 56.444 12.7258 57.1353 13.9301C57.7602 15.0186 58.3826 16.1087 59.0026 17.2012C59.4937 18.0667 59.266 19.1325 58.3883 19.6901C57.2958 20.3846 56.166 21.0233 55.0346 21.653C54.6918 21.8435 54.6253 22.0226 54.7582 22.3848C55.264 23.7691 55.623 25.1955 55.8694 26.6478C55.9245 26.9728 56.0801 27.0506 56.3848 27.0709C57.6516 27.156 58.9199 27.015 60.1867 27.1179C61.2451 27.2046 62.0337 27.9705 62.0507 29.0395C62.0718 30.3897 62.0718 31.7408 62.0523 33.091C62.0361 34.2256 61.1568 34.9988 59.8811 35.0158C58.6249 35.032 57.3687 35.0353 56.1133 35.0158C55.7689 35.011 55.6368 35.1341 55.5833 35.4575C55.3369 36.965 54.9908 38.4481 54.4349 39.8753C54.3457 40.1039 54.3806 40.2311 54.6099 40.36C55.6562 40.95 56.6863 41.5684 57.7294 42.1641C58.9896 42.8837 59.2757 43.9065 58.5569 45.1571C57.9984 46.1288 57.4068 47.0835 56.8987 48.0804C56.1927 49.4638 54.8287 49.5603 53.7962 48.8917C52.8115 48.2538 51.779 47.6898 50.7757 47.0795C50.5698 46.9547 50.4482 46.9733 50.3007 47.1573C49.3274 48.3754 48.2 49.442 47.0078 50.4404C46.7882 50.6244 46.8036 50.7573 46.939 50.9786C47.5525 51.9803 48.153 52.9893 48.7503 54.0008C49.5057 55.2789 49.2398 56.2838 47.9585 57.0189C46.9049 57.6235 45.8521 58.2306 44.7953 58.8303C43.8236 59.3822 42.8008 59.1253 42.1824 58.1909C42.0033 57.9202 41.919 57.6495 41.9944 57.3156C42.1589 56.5845 42.1743 55.8446 42.0041 55.1119C41.893 54.6313 42.0446 54.1702 42.1005 53.7082C42.1605 53.2122 42.0924 52.7421 42.0089 52.2656C41.9733 52.0614 41.9595 51.8863 42.1078 51.6991C43.0569 50.5093 43.5512 49.138 43.5942 47.6249C43.6242 46.5543 43.9759 45.5826 44.4103 44.6416C45.203 42.9267 46.0491 41.2369 46.8676 39.5333C48.1036 36.9633 49.0858 34.3034 49.3339 31.4449C49.5648 28.7785 49.2163 26.1624 48.26 23.6475C46.5426 19.1333 43.5172 15.7788 39.2234 13.5849C37.2459 12.5742 35.1346 11.9834 32.9205 11.7654C29.8683 11.4647 26.9117 11.8578 24.0727 13.0192C21.365 14.1271 19.0625 15.8072 17.1417 18.0197C15.088 20.3846 13.7297 23.0948 13.074 26.1494C12.6088 28.319 12.5383 30.5048 12.8957 32.7044C13.3382 35.43 14.3829 37.9359 15.6107 40.381C16.465 42.0814 17.3038 43.7898 18.0105 45.5599C18.3144 46.3209 18.4773 47.1103 18.5106 47.9232C18.5649 49.245 19.0138 50.4283 19.7465 51.5103C19.9329 51.7858 20.0164 52.0354 19.9321 52.3742C19.7976 52.9148 19.7814 53.474 19.9094 54.0202C20.0423 54.5908 19.9588 55.146 19.8583 55.7044C19.7724 56.1801 19.8648 56.6485 19.924 57.1146C20.0626 58.2087 19.3542 59.0516 18.2374 59.1067C17.752 59.131 17.3403 58.9413 16.9399 58.7128C15.9195 58.1309 14.9008 57.5465 13.8877 56.9533C12.8203 56.3284 12.5245 55.3178 13.0983 54.222C13.6746 53.1223 14.2589 52.0257 14.8667 50.9437C15.0572 50.605 15.0645 50.4145 14.729 50.1454C13.5765 49.2239 12.5731 48.1436 11.6225 47.0187C11.4247 46.7845 11.2918 46.7569 11.0276 46.9206C9.99508 47.5601 8.9496 48.1801 7.90005 48.792C6.76541 49.4533 5.70777 49.1534 5.05373 48.0099C4.46372 46.979 3.87046 45.9497 3.27478 44.922C2.60534 43.7663 2.88738 42.6933 4.04228 42.0344C5.07399 41.446 6.10408 40.8535 7.14471 40.2806C7.38298 40.1493 7.4308 40.0236 7.34327 39.7683C6.82782 38.2739 6.41043 36.7526 6.16973 35.1876C6.13326 34.9494 6.00196 34.9299 5.80097 34.9315C4.69389 34.9413 3.58599 34.9502 2.47891 34.9332C1.98372 34.925 1.48367 34.9121 1.02576 34.6519C0.395223 34.2937 0.0394325 33.7523 0.0240338 33.0456C-0.00595312 31.6824 -0.0100054 30.3176 0.0240338 28.9544C0.0491579 27.9405 0.827196 27.1957 1.84108 27.126C3.18806 27.0328 4.53585 27.1025 5.88364 27.1009C6.10894 27.1009 6.22079 27.0741 6.25969 26.8164C6.4931 25.2652 6.84646 23.7424 7.41216 22.2754C7.51995 21.9958 7.47943 21.8548 7.20387 21.7008C6.11948 21.0962 5.04481 20.4722 3.97906 19.8343C2.90359 19.1908 2.6337 18.1542 3.24803 17.0585C3.85506 15.9749 4.47344 14.8978 5.10074 13.8256C5.69885 12.8036 6.7176 12.5021 7.77119 13.0492C8.92123 13.6465 10.0591 14.2665 11.1929 14.893C11.4693 15.0453 11.6273 15.017 11.8316 14.7633C12.7563 13.6124 13.8294 12.6042 14.9494 11.6479C15.2152 11.421 15.2736 11.2621 15.0775 10.9469C14.4372 9.91433 13.8326 8.85992 13.2142 7.81443C12.6112 6.79488 12.8779 5.704 13.9064 5.09616C14.9988 4.45022 16.0986 3.81726 17.2065 3.19888C18.2966 2.59022 19.3461 2.88604 19.9702 3.96557C20.5586 4.98188 21.1405 6.00225 21.707 7.03072C21.8618 7.31195 22.0044 7.41082 22.34 7.29493C23.7826 6.79569 25.2511 6.38478 26.7626 6.15218C27.0909 6.10193 27.0933 5.90013 27.0957 5.65943C27.1063 4.51344 27.1452 3.36745 27.1233 2.22227C27.099 1.09898 27.5998 0.375242 28.638 0C30.2322 0 31.8264 0 33.4197 0Z" fill="black"/>
<path d="M33.4197 0C34.1564 0.272314 34.7562 0.705908 34.8753 1.53095C34.9693 2.18256 35.0269 2.84957 34.9555 3.50928C34.8664 4.33433 35.0204 5.1537 34.9612 5.9755C34.9482 6.15948 35.0495 6.19676 35.2035 6.22188C36.7912 6.48042 38.3562 6.82892 39.8564 7.42379C40.0655 7.50646 40.1676 7.44973 40.2746 7.26251C40.8824 6.19514 41.504 5.13587 42.1184 4.07174C42.8178 2.86254 43.8535 2.57401 45.0571 3.26128C46.1123 3.86345 47.1691 4.46319 48.2187 5.07509C49.2236 5.66024 49.5259 6.67169 48.9951 7.71231C48.4124 8.85425 47.8069 9.98565 47.2064 11.1187C47.1091 11.3018 47.0573 11.4331 47.2615 11.6001C48.4456 12.5678 49.5024 13.6684 50.4952 14.8281C50.7205 15.0915 50.8932 15.1304 51.2011 14.9367C52.185 14.3208 53.1908 13.7405 54.1893 13.1472C55.3742 12.443 56.444 12.7258 57.1353 13.9301C57.7602 15.0186 58.3826 16.1087 59.0026 17.2012C59.4937 18.0667 59.266 19.1325 58.3883 19.6901C57.2958 20.3846 56.166 21.0233 55.0346 21.653C54.6918 21.8435 54.6253 22.0226 54.7582 22.3848C55.264 23.7691 55.623 25.1955 55.8694 26.6478C55.9245 26.9728 56.0801 27.0506 56.3848 27.0709C57.6516 27.156 58.9199 27.015 60.1867 27.1179C61.2451 27.2046 62.0337 27.9705 62.0507 29.0395C62.0718 30.3897 62.0718 31.7408 62.0523 33.091C62.0361 34.2256 61.1568 34.9988 59.8811 35.0158C58.6249 35.032 57.3687 35.0353 56.1133 35.0158C55.7689 35.011 55.6368 35.1341 55.5833 35.4575C55.3369 36.965 54.9908 38.4481 54.4349 39.8753C54.3457 40.1039 54.3806 40.2311 54.6099 40.36C55.6562 40.95 56.6863 41.5684 57.7294 42.1641C58.9896 42.8837 59.2757 43.9065 58.5569 45.1571C57.9984 46.1288 57.4068 47.0835 56.8987 48.0804C56.1927 49.4638 54.8287 49.5603 53.7962 48.8917C52.8115 48.2538 51.779 47.6898 50.7757 47.0795C50.5698 46.9547 50.4482 46.9733 50.3007 47.1573C49.3274 48.3754 48.2 49.442 47.0078 50.4404C46.7882 50.6244 46.8036 50.7573 46.939 50.9786C47.5525 51.9803 48.153 52.9893 48.7503 54.0008C49.5057 55.2789 49.2398 56.2838 47.9585 57.0189C46.9049 57.6235 45.8521 58.2306 44.7953 58.8303C43.8236 59.3822 42.8008 59.1253 42.1824 58.1909C42.0033 57.9202 41.919 57.6495 41.9944 57.3156C42.1589 56.5845 42.1743 55.8446 42.0041 55.1119C41.893 54.6313 42.0446 54.1702 42.1005 53.7082C42.1605 53.2122 42.0924 52.7421 42.0089 52.2656C41.9733 52.0614 41.9595 51.8863 42.1078 51.6991C43.0569 50.5093 43.5512 49.138 43.5942 47.6249C43.6242 46.5543 43.9759 45.5826 44.4103 44.6416C45.203 42.9267 46.0491 41.2369 46.8676 39.5333C48.1036 36.9633 49.0858 34.3034 49.3339 31.4449C49.5648 28.7785 49.2163 26.1624 48.26 23.6475C46.5426 19.1333 43.5172 15.7788 39.2234 13.5849C37.2459 12.5742 35.1346 11.9834 32.9205 11.7654C29.8683 11.4647 26.9117 11.8578 24.0727 13.0192C21.365 14.1271 19.0625 15.8072 17.1417 18.0197C15.088 20.3846 13.7297 23.0948 13.074 26.1494C12.6088 28.319 12.5383 30.5048 12.8957 32.7044C13.3382 35.43 14.3829 37.9359 15.6107 40.381C16.465 42.0814 17.3038 43.7898 18.0105 45.5599C18.3144 46.3209 18.4773 47.1103 18.5106 47.9232C18.5649 49.245 19.0138 50.4283 19.7465 51.5103C19.9329 51.7858 20.0164 52.0354 19.9321 52.3742C19.7976 52.9148 19.7814 53.474 19.9094 54.0202C20.0423 54.5908 19.9588 55.146 19.8583 55.7044C19.7724 56.1801 19.8648 56.6485 19.924 57.1146C20.0626 58.2087 19.3542 59.0516 18.2374 59.1067C17.752 59.131 17.3403 58.9413 16.9399 58.7128C15.9195 58.1309 14.9008 57.5465 13.8877 56.9533C12.8203 56.3284 12.5245 55.3178 13.0983 54.222C13.6746 53.1223 14.2589 52.0257 14.8667 50.9437C15.0572 50.605 15.0645 50.4145 14.729 50.1454C13.5765 49.2239 12.5731 48.1436 11.6225 47.0187C11.4247 46.7845 11.2918 46.7569 11.0276 46.9206C9.99508 47.5601 8.9496 48.1801 7.90005 48.792C6.76541 49.4533 5.70777 49.1534 5.05373 48.0099C4.46372 46.979 3.87046 45.9497 3.27478 44.922C2.60534 43.7663 2.88738 42.6933 4.04228 42.0344C5.07399 41.446 6.10408 40.8535 7.14471 40.2806C7.38298 40.1493 7.4308 40.0236 7.34327 39.7683C6.82782 38.2739 6.41043 36.7526 6.16973 35.1876C6.13326 34.9494 6.00196 34.9299 5.80097 34.9315C4.69389 34.9413 3.58599 34.9502 2.47891 34.9332C1.98372 34.925 1.48367 34.9121 1.02576 34.6519C0.395223 34.2937 0.0394325 33.7523 0.0240338 33.0456C-0.00595312 31.6824 -0.0100054 30.3176 0.0240338 28.9544C0.0491579 27.9405 0.827196 27.1957 1.84108 27.126C3.18806 27.0328 4.53585 27.1025 5.88364 27.1009C6.10894 27.1009 6.22079 27.0741 6.25969 26.8164C6.4931 25.2652 6.84646 23.7424 7.41216 22.2754C7.51995 21.9958 7.47943 21.8548 7.20387 21.7008C6.11948 21.0962 5.04481 20.4722 3.97906 19.8343C2.90359 19.1908 2.6337 18.1542 3.24803 17.0585C3.85506 15.9749 4.47344 14.8978 5.10074 13.8256C5.69885 12.8036 6.7176 12.5021 7.77119 13.0492C8.92123 13.6465 10.0591 14.2665 11.1929 14.893C11.4693 15.0453 11.6273 15.017 11.8316 14.7633C12.7563 13.6124 13.8294 12.6042 14.9494 11.6479C15.2152 11.421 15.2736 11.2621 15.0775 10.9469C14.4372 9.91433 13.8326 8.85992 13.2142 7.81443C12.6112 6.79488 12.8779 5.704 13.9064 5.09616C14.9988 4.45022 16.0986 3.81726 17.2065 3.19888C18.2966 2.59022 19.3461 2.88604 19.9702 3.96557C20.5586 4.98188 21.1405 6.00225 21.707 7.03072C21.8618 7.31195 22.0044 7.41082 22.34 7.29493C23.7826 6.79569 25.2511 6.38478 26.7626 6.15218C27.0909 6.10193 27.0933 5.90013 27.0957 5.65943C27.1063 4.51344 27.1452 3.36745 27.1233 2.22227C27.099 1.09898 27.5998 0.375242 28.638 0C30.2322 0 31.8264 0 33.4197 0Z" fill="white"/>
<path d="M30.5026 61.9998C29.5876 61.8094 28.8193 61.3693 28.2017 60.6634C28.0834 60.5289 27.9051 60.5475 27.7438 60.5475C26.9471 60.5451 26.1504 60.5532 25.3537 60.5451C24.5433 60.537 23.9363 60.0823 23.7969 59.3975C23.6477 58.6656 24.0051 58.057 24.7897 57.7077C24.8132 57.6971 24.8334 57.6785 24.8894 57.6404C24.1202 57.313 23.6583 56.7732 23.7944 55.9198C23.8925 55.3071 24.3253 54.944 24.9372 54.7462C24.8043 54.6863 24.6859 54.6409 24.5757 54.5817C24.0157 54.2819 23.7077 53.7097 23.7774 53.1059C23.8431 52.5369 24.2775 52.0442 24.8667 51.874C25.0887 51.81 25.3156 51.7913 25.5474 51.7913C29.1937 51.7913 32.8399 51.7889 36.4862 51.7856C36.7034 51.7856 36.9173 51.8035 37.1281 51.8586C37.7351 52.0166 38.2238 52.5321 38.2821 53.0799C38.351 53.7259 38.0317 54.3013 37.4304 54.6069C37.3355 54.6547 37.2342 54.6895 37.1062 54.743C37.7772 54.9724 38.2416 55.363 38.2797 56.0908C38.3202 56.8713 37.898 57.3494 37.141 57.6347C37.5738 57.8398 37.9426 58.0335 38.1379 58.4549C38.5893 59.4258 37.9369 60.5191 36.8638 60.5386C36.0137 60.554 35.1627 60.5467 34.3117 60.5402C34.0653 60.5386 33.887 60.6107 33.716 60.8044C33.1406 61.4544 32.3853 61.798 31.5562 61.9998C31.2052 61.9998 30.8543 61.9998 30.5026 61.9998Z" fill="black"/>
<path d="M30.5026 61.9998C29.5876 61.8094 28.8193 61.3693 28.2017 60.6634C28.0834 60.5289 27.9051 60.5475 27.7438 60.5475C26.9471 60.5451 26.1504 60.5532 25.3537 60.5451C24.5433 60.537 23.9363 60.0823 23.7969 59.3975C23.6477 58.6656 24.0051 58.057 24.7897 57.7077C24.8132 57.6971 24.8334 57.6785 24.8894 57.6404C24.1202 57.313 23.6583 56.7732 23.7944 55.9198C23.8925 55.3071 24.3253 54.944 24.9372 54.7462C24.8043 54.6863 24.6859 54.6409 24.5757 54.5817C24.0157 54.2819 23.7077 53.7097 23.7774 53.1059C23.8431 52.5369 24.2775 52.0442 24.8667 51.874C25.0887 51.81 25.3156 51.7913 25.5474 51.7913C29.1937 51.7913 32.8399 51.7889 36.4862 51.7856C36.7034 51.7856 36.9173 51.8035 37.1281 51.8586C37.7351 52.0166 38.2238 52.5321 38.2821 53.0799C38.351 53.7259 38.0317 54.3013 37.4304 54.6069C37.3355 54.6547 37.2342 54.6895 37.1062 54.743C37.7772 54.9724 38.2416 55.363 38.2797 56.0908C38.3202 56.8713 37.898 57.3494 37.141 57.6347C37.5738 57.8398 37.9426 58.0335 38.1379 58.4549C38.5893 59.4258 37.9369 60.5191 36.8638 60.5386C36.0137 60.554 35.1627 60.5467 34.3117 60.5402C34.0653 60.5386 33.887 60.6107 33.716 60.8044C33.1406 61.4544 32.3853 61.798 31.5562 61.9998C31.2052 61.9998 30.8543 61.9998 30.5026 61.9998Z" fill="white"/>
<path d="M31.0388 50.4241C29.229 50.4241 27.4193 50.4265 25.6095 50.4233C24.5405 50.4217 23.5826 50.1583 22.8848 49.2668C22.5565 48.8478 22.3312 48.372 22.3223 47.859C22.2859 45.6562 21.4073 43.7127 20.4883 41.7871C19.4646 39.6434 18.3478 37.5419 17.5228 35.3107C16.6102 32.8445 16.2163 30.3191 16.6718 27.6843C17.291 24.1029 18.9759 21.1447 21.7518 18.8195C23.8379 17.0722 26.2498 16.0145 28.9478 15.632C31.756 15.234 34.4565 15.6109 37.0459 16.7812C39.5065 17.8931 41.5018 19.5667 43.0263 21.7833C44.3149 23.6563 45.1091 25.7311 45.4398 27.9898C45.8118 30.5298 45.409 32.9563 44.5062 35.3301C43.5976 37.721 42.3747 39.9643 41.2814 42.2685C40.6549 43.5887 40.1046 44.9373 39.8857 46.3953C39.8298 46.7681 39.7788 47.145 39.7699 47.521C39.7326 49.1736 38.5161 50.4168 36.6293 50.4168C34.7653 50.4168 32.902 50.4168 31.038 50.4168C31.0388 50.4201 31.0388 50.4225 31.0388 50.4241ZM29.5168 43.036C29.5168 41.9694 29.5143 40.902 29.5184 39.8355C29.52 39.3776 29.4941 38.918 29.5905 38.4634C29.734 37.7923 30.3694 37.2607 31.0404 37.2671C31.7001 37.2736 32.3274 37.7899 32.462 38.4431C32.5195 38.7211 32.5454 39.0015 32.5454 39.2876C32.5414 41.8535 32.5487 44.4194 32.5365 46.9853C32.5349 47.3103 32.6119 47.4003 32.9571 47.4262C34.1169 47.5105 35.2767 47.3525 36.4332 47.4635C36.7177 47.4911 36.7987 47.3671 36.819 47.0931C36.9025 45.9731 37.1075 44.8749 37.4609 43.8051C38.0225 42.1072 38.8273 40.5163 39.6094 38.9156C40.4385 37.2177 41.3138 35.5425 41.937 33.7514C42.7864 31.3127 42.8504 28.8627 42.0286 26.4111C41.2473 24.0794 39.8622 22.174 37.8791 20.7103C35.4298 18.9022 32.6686 18.189 29.6707 18.531C26.8179 18.8568 24.3849 20.1065 22.4731 22.2729C19.5757 25.5552 18.7579 29.3125 20.0393 33.4985C20.6779 35.5846 21.725 37.4989 22.6765 39.4529C23.8768 41.9175 25.0876 44.3838 25.2497 47.1952C25.2578 47.3419 25.3097 47.4246 25.4677 47.4149C26.1971 47.3719 26.9233 47.5275 27.6519 47.453C28.1106 47.406 28.5677 47.3825 29.024 47.4554C29.3879 47.5138 29.5305 47.3987 29.5249 47.0064C29.5054 45.6829 29.5176 44.3595 29.5168 43.036Z" fill="black"/>
<path d="M31.0388 50.4241C29.229 50.4241 27.4193 50.4265 25.6095 50.4233C24.5405 50.4217 23.5826 50.1583 22.8848 49.2668C22.5565 48.8478 22.3312 48.372 22.3223 47.859C22.2859 45.6562 21.4073 43.7127 20.4883 41.7871C19.4646 39.6434 18.3478 37.5419 17.5228 35.3107C16.6102 32.8445 16.2163 30.3191 16.6718 27.6843C17.291 24.1029 18.9759 21.1447 21.7518 18.8195C23.8379 17.0722 26.2498 16.0145 28.9478 15.632C31.756 15.234 34.4565 15.6109 37.0459 16.7812C39.5065 17.8931 41.5018 19.5667 43.0263 21.7833C44.3149 23.6563 45.1091 25.7311 45.4398 27.9898C45.8118 30.5298 45.409 32.9563 44.5062 35.3301C43.5976 37.721 42.3747 39.9643 41.2814 42.2685C40.6549 43.5887 40.1046 44.9373 39.8857 46.3953C39.8298 46.7681 39.7788 47.145 39.7699 47.521C39.7326 49.1736 38.5161 50.4168 36.6293 50.4168C34.7653 50.4168 32.902 50.4168 31.038 50.4168C31.0388 50.4201 31.0388 50.4225 31.0388 50.4241ZM29.5168 43.036C29.5168 41.9694 29.5143 40.902 29.5184 39.8355C29.52 39.3776 29.4941 38.918 29.5905 38.4634C29.734 37.7923 30.3694 37.2607 31.0404 37.2671C31.7001 37.2736 32.3274 37.7899 32.462 38.4431C32.5195 38.7211 32.5454 39.0015 32.5454 39.2876C32.5414 41.8535 32.5487 44.4194 32.5365 46.9853C32.5349 47.3103 32.6119 47.4003 32.9571 47.4262C34.1169 47.5105 35.2767 47.3525 36.4332 47.4635C36.7177 47.4911 36.7987 47.3671 36.819 47.0931C36.9025 45.9731 37.1075 44.8749 37.4609 43.8051C38.0225 42.1072 38.8273 40.5163 39.6094 38.9156C40.4385 37.2177 41.3138 35.5425 41.937 33.7514C42.7864 31.3127 42.8504 28.8627 42.0286 26.4111C41.2473 24.0794 39.8622 22.174 37.8791 20.7103C35.4298 18.9022 32.6686 18.189 29.6707 18.531C26.8179 18.8568 24.3849 20.1065 22.4731 22.2729C19.5757 25.5552 18.7579 29.3125 20.0393 33.4985C20.6779 35.5846 21.725 37.4989 22.6765 39.4529C23.8768 41.9175 25.0876 44.3838 25.2497 47.1952C25.2578 47.3419 25.3097 47.4246 25.4677 47.4149C26.1971 47.3719 26.9233 47.5275 27.6519 47.453C28.1106 47.406 28.5677 47.3825 29.024 47.4554C29.3879 47.5138 29.5305 47.3987 29.5249 47.0064C29.5054 45.6829 29.5176 44.3595 29.5168 43.036Z" fill="white"/>
<path d="M30.9876 31.5382C30.0961 31.5382 29.2046 31.5414 28.3131 31.5373C27.8025 31.5349 27.3511 31.368 27.0188 30.9725C26.2983 30.1142 26.7003 28.8961 27.7944 28.5986C28.0303 28.5346 28.2726 28.52 28.5174 28.52C30.1788 28.5225 31.8402 28.5216 33.5008 28.5208C33.8137 28.5208 34.1241 28.5484 34.4167 28.6554C35.0674 28.8936 35.4216 29.4601 35.3835 30.175C35.3527 30.765 34.8892 31.2974 34.261 31.4555C34.0252 31.5155 33.7845 31.5406 33.5389 31.5398C32.6888 31.5349 31.8386 31.5382 30.9876 31.5382Z" fill="black"/>
<path d="M30.9876 31.5382C30.0961 31.5382 29.2046 31.5414 28.3131 31.5373C27.8025 31.5349 27.3511 31.368 27.0188 30.9725C26.2983 30.1142 26.7003 28.8961 27.7944 28.5986C28.0303 28.5346 28.2726 28.52 28.5174 28.52C30.1788 28.5225 31.8402 28.5216 33.5008 28.5208C33.8137 28.5208 34.1241 28.5484 34.4167 28.6554C35.0674 28.8936 35.4216 29.4601 35.3835 30.175C35.3527 30.765 34.8892 31.2974 34.261 31.4555C34.0252 31.5155 33.7845 31.5406 33.5389 31.5398C32.6888 31.5349 31.8386 31.5382 30.9876 31.5382Z" fill="white"/>
<path d="M30.9868 32.8947C31.918 32.8947 32.8492 32.8825 33.7796 32.8979C34.7643 32.9141 35.3989 33.5366 35.3859 34.441C35.377 35.0789 34.8599 35.7175 34.2326 35.8229C33.7002 35.9128 33.162 35.9485 32.6207 35.878C32.4472 35.8553 32.2681 35.8318 32.0971 35.8521C30.9414 35.9874 29.7824 35.7726 28.6251 35.8991C28.1664 35.9493 27.7052 35.8788 27.3097 35.5984C26.7594 35.2077 26.5301 34.5926 26.7068 34.005C26.8972 33.3721 27.4759 32.9109 28.1526 32.8996C29.0976 32.8833 30.0426 32.8955 30.9868 32.8947Z" fill="black"/>
<path d="M30.9868 32.8947C31.918 32.8947 32.8492 32.8825 33.7796 32.8979C34.7643 32.9141 35.3989 33.5366 35.3859 34.441C35.377 35.0789 34.8599 35.7175 34.2326 35.8229C33.7002 35.9128 33.162 35.9485 32.6207 35.878C32.4472 35.8553 32.2681 35.8318 32.0971 35.8521C30.9414 35.9874 29.7824 35.7726 28.6251 35.8991C28.1664 35.9493 27.7052 35.8788 27.3097 35.5984C26.7594 35.2077 26.5301 34.5926 26.7068 34.005C26.8972 33.3721 27.4759 32.9109 28.1526 32.8996C29.0976 32.8833 30.0426 32.8955 30.9868 32.8947Z" fill="white"/>
</svg>
