<svg width="74" height="74" viewBox="0 0 74 74" fill="none" xmlns="http://www.w3.org/2000/svg">
<g filter="url(#filter0_d_65_50)">
<circle cx="37" cy="33" r="29" fill="white"/>
<circle cx="37" cy="33" r="29" fill="#ffda43"/>
</g>
<path d="M42.3155 44C41.652 44 40.9886 44 40.3252 44C40.307 43.9968 40.2872 43.9903 40.2691 43.9903C39.873 43.9903 39.4785 43.9677 39.0841 43.9499C38.6963 43.9321 38.3085 43.9127 37.9206 43.8885C37.5113 43.8626 37.1021 43.8303 36.6928 43.7996C36.4518 43.7818 36.2092 43.7754 35.9699 43.7334C35.4088 43.6348 34.8493 43.5297 34.2899 43.4279C33.2073 43.2308 32.123 43.0352 31.0404 42.8397C30.8819 42.8106 30.8836 42.809 30.8836 42.649C30.8836 39.4752 30.8836 36.3013 30.8836 33.1291C30.8836 32.94 30.8687 32.9578 31.0585 32.9545C31.2582 32.9513 31.4595 32.9739 31.6559 32.9109C31.9332 32.8236 32.1593 32.6572 32.3689 32.4665C32.7881 32.0851 33.1148 31.631 33.4119 31.1559C34.0308 30.1685 34.5143 29.1149 34.9616 28.0451C35.0903 27.7364 35.2009 27.4197 35.3973 27.1417C35.6514 26.783 35.9831 26.5018 36.3313 26.2368C36.6581 25.9863 36.9849 25.7374 37.2473 25.4174C37.6731 24.8971 37.9206 24.2975 38.1022 23.6641C38.2507 23.1437 38.3497 22.6137 38.4223 22.0788C38.4735 21.7055 38.5181 21.3305 38.5445 20.954C38.5577 20.7649 38.5709 20.5743 38.5923 20.3852C38.6154 20.1767 38.6946 20.0959 38.9059 20.041C39.1006 19.9893 39.297 19.9909 39.4934 20.0216C40.2608 20.1428 40.883 20.5048 41.3352 21.1221C41.756 21.6974 41.893 22.3648 41.9409 23.0548C41.9607 23.3328 41.9491 23.6091 41.9244 23.8871C41.8765 24.4317 41.7527 24.9585 41.5316 25.4611C41.3203 25.9427 41.0579 26.4016 40.8236 26.8735C40.543 27.4375 40.2707 28.0063 40.1304 28.6236C40.0677 28.8967 40.043 29.1714 40.1321 29.4462C40.1585 29.5302 40.2031 29.5658 40.2971 29.5625C40.7625 29.5464 41.2279 29.527 41.6933 29.527C42.87 29.5254 44.0467 29.4995 45.2217 29.5771C45.5716 29.5997 45.9198 29.6352 46.2681 29.6724C46.7103 29.7209 47.0751 29.91 47.3721 30.2283C47.458 30.3204 47.5454 30.4109 47.6246 30.5095C47.9844 30.9571 48.2881 31.4339 48.4036 32.0043C48.4036 32.0981 48.4036 32.1918 48.4036 32.2855C48.3524 32.4277 48.2732 32.5554 48.1808 32.6766C48.0323 32.8721 47.8854 33.0677 47.7369 33.2632C47.5751 33.4765 47.5586 33.6995 47.6708 33.9403C47.7567 34.1229 47.8639 34.2926 47.9679 34.4639C48.1296 34.7289 48.3145 34.981 48.4019 35.2848C48.4019 35.3592 48.4019 35.4351 48.4019 35.5095C48.2996 35.7842 48.095 35.9878 47.9052 36.2027C47.7402 36.3886 47.5619 36.5647 47.4398 36.7829C47.3771 36.8976 47.3457 37.0156 47.3672 37.1513C47.4035 37.3792 47.491 37.5893 47.5751 37.801C47.6675 38.0304 47.7666 38.2567 47.8408 38.4926C47.9217 38.7512 47.8821 38.9904 47.7385 39.2182C47.6461 39.3653 47.5355 39.4978 47.4117 39.6206C47.1823 39.8501 46.948 40.0763 46.7186 40.3058C46.5503 40.4739 46.4661 40.6759 46.471 40.9134C46.476 41.151 46.4611 41.3885 46.476 41.6245C46.4925 41.896 46.4001 42.1254 46.24 42.3371C45.9479 42.725 45.5914 43.0482 45.197 43.3342C44.8867 43.5588 44.5567 43.7398 44.1705 43.8125C43.7199 43.8982 43.2644 43.9483 42.8073 43.9693C42.6456 43.979 42.4805 43.9903 42.3155 44Z" fill="white"/>
<path d="M25.0033 37.9995C25.0033 36.4902 25.0099 34.9824 25 33.4731C24.9967 32.9964 25.3565 32.476 26.0034 32.4712C26.9771 32.4647 27.9492 32.4647 28.9229 32.4712C29.4328 32.4744 29.8091 32.796 29.9098 33.2856C29.9213 33.3454 29.9197 33.4036 29.9197 33.4634C29.9197 36.4837 29.9164 39.5041 29.9246 42.5244C29.9263 43.0157 29.5566 43.5247 28.9278 43.5296C27.9525 43.5376 26.9755 43.5376 26.0001 43.5296C25.4885 43.5247 25.1106 43.1999 25.0165 42.7102C25.0066 42.6553 25.0066 42.5987 25.0066 42.5422C25.0033 41.0296 25.0033 39.5138 25.0033 37.9995Z" fill="white"/>
<defs>
<filter id="filter0_d_65_50" x="0" y="0" width="74" height="74" filterUnits="userSpaceOnUse" color-interpolation-filters="sRGB">
<feFlood flood-opacity="0" result="BackgroundImageFix"/>
<feColorMatrix in="SourceAlpha" type="matrix" values="0 0 0 0 0 0 0 0 0 0 0 0 0 0 0 0 0 0 127 0" result="hardAlpha"/>
<feOffset dy="4"/>
<feGaussianBlur stdDeviation="4"/>
<feComposite in2="hardAlpha" operator="out"/>
<feColorMatrix type="matrix" values="0 0 0 0 0 0 0 0 0 0 0 0 0 0 0 0 0 0 0.25 0"/>
<feBlend mode="normal" in2="BackgroundImageFix" result="effect1_dropShadow_65_50"/>
<feBlend mode="normal" in="SourceGraphic" in2="effect1_dropShadow_65_50" result="shape"/>
</filter>
</defs>
</svg>
