<svg width="65" height="64" viewBox="0 0 65 64" fill="none" xmlns="http://www.w3.org/2000/svg">
<mask id="path-1-outside-1_44_2606" maskUnits="userSpaceOnUse" x="0" y="0" width="65" height="64" fill="black">
<rect fill="white" width="65" height="64"/>
<path d="M64.1402 30.1681C63.7772 30.5709 63.2858 30.7734 62.815 30.9992C60.9029 31.914 58.8975 32.588 56.8949 33.2674C55.8778 33.612 55.9148 33.614 55.7796 34.686C55.5641 36.397 55.3329 38.1093 54.8181 39.764C54.733 40.0372 54.7914 40.2177 54.9883 40.4009C55.9341 41.2815 56.9251 42.1112 57.8365 43.0295C58.925 44.1269 59.9496 45.2799 60.9345 46.4699C61.0532 46.6134 61.0731 46.7349 60.9825 46.9009C60.255 48.2372 59.5138 49.5645 58.6532 50.8211C58.4748 51.0819 58.2641 51.1753 57.9559 51.1272C57.608 51.073 57.2957 50.9611 57.0301 50.7216C56.0597 49.8459 55.2189 48.8473 54.3494 47.8776C52.3948 45.6985 50.4608 43.5017 48.5082 41.3206C48.2742 41.0591 48.2447 40.8347 48.397 40.5217C49.2728 38.7236 49.909 36.8458 50.2212 34.8652C50.4113 33.66 50.3489 32.4446 50.3098 31.236C50.2679 29.945 50.1101 28.6589 49.7491 27.4125C48.9804 24.7565 47.6881 22.3853 45.8186 20.3408C43.2175 17.4975 40.0337 15.6458 36.2762 14.7955C35.1122 14.5319 33.9208 14.5148 32.7314 14.5182C31.9085 14.5203 31.0836 14.4956 30.2648 14.5951C28.2484 14.8401 26.3412 15.4447 24.53 16.3623C22.758 17.26 21.1911 18.437 19.8124 19.8611C17.3197 22.4354 15.7076 25.4827 15.0583 29.0055C14.768 30.5805 14.779 32.1865 14.8586 33.7904C14.9739 36.106 15.6252 38.2734 16.6732 40.3138C18.5207 43.91 21.3037 46.5729 24.9398 48.3422C27.7069 49.6887 30.6388 50.1966 33.6957 50.0497C34.8274 49.9955 35.9454 49.8342 37.0407 49.5261C37.6989 49.3408 37.7298 49.3586 38.1292 49.9056C40.5107 53.1642 42.8887 56.4255 45.2695 59.6855C45.3588 59.8076 45.4322 59.9277 45.4301 60.0897C45.4246 60.5818 45.4219 61.0732 45.4308 61.5653C45.4342 61.7574 45.3478 61.8583 45.1789 61.9222C43.7144 62.4753 42.2512 63.0333 40.7379 63.4458C40.4668 63.5199 40.3473 63.3847 40.2066 63.1966C38.6069 61.0547 37.2795 58.7473 36.0655 56.372C35.9351 56.1174 35.7759 56.0474 35.5061 56.0336C33.9516 55.9575 32.3958 56.0233 30.8413 55.9911C30.4755 55.9835 30.1008 56.0213 29.746 55.9547C29.3136 55.8737 29.0576 56.0323 28.8311 56.3727C28.0844 57.4962 27.4098 58.6663 26.615 59.7589C25.7935 60.8872 24.9686 62.0107 24.0263 63.0443C23.8424 63.246 23.6872 63.3257 23.4093 63.22C22.0319 62.6943 20.6311 62.2317 19.2818 61.6318C18.9854 61.5001 18.881 61.3223 18.8941 61.0032C18.973 59.0692 19.2352 57.1585 19.6106 55.2622C19.7526 54.5457 19.892 53.8272 20.0732 53.1203C20.1562 52.797 20.0642 52.6028 19.8227 52.4154C19.0821 51.841 18.3437 51.2631 17.6134 50.6743C16.7933 50.0133 16.0528 49.2639 15.2889 48.5412C15.0961 48.3587 14.9355 48.2845 14.6582 48.3875C12.1113 49.3298 9.48961 49.9948 6.81576 50.4656C6.46849 50.5267 6.21799 50.4601 6.01622 50.1664C5.12745 48.87 4.41781 47.474 3.71846 46.0719C3.64159 45.9181 3.69719 45.8166 3.80219 45.7088C5.52688 43.9354 7.35589 42.278 9.32833 40.7825C9.61109 40.5684 9.89522 40.3577 10.1519 40.1113C10.2844 39.9843 10.3146 39.8608 10.2569 39.6844C9.81355 38.3207 9.56648 36.9145 9.38186 35.4973C9.31118 34.9544 9.26931 34.4074 9.21921 33.8625C9.18901 33.533 9.03116 33.3223 8.71134 33.2043C7.17745 32.636 5.6813 31.9772 4.21397 31.2552C3.11383 30.7144 2.0425 30.1228 1 29.4818C1 29.3219 1 29.1613 1 29.0014C1.0151 28.9348 1.03432 28.8689 1.04392 28.8016C1.23952 27.4434 1.49345 26.099 1.86681 24.7764C1.97799 24.3832 2.20927 24.2267 2.5888 24.1732C3.42747 24.0538 4.27231 24.0057 5.11578 23.992C6.93381 23.9618 8.75184 23.9714 10.5699 23.9741C10.8025 23.9748 10.9514 23.9192 11.0496 23.6914C11.8485 21.8473 12.8916 20.1425 14.046 18.5043C14.1984 18.2874 14.2128 18.1234 14.0776 17.89C12.6775 15.4694 11.4806 12.9575 10.6234 10.2885C10.5259 9.98445 10.5808 9.81562 10.8011 9.61042C11.9342 8.55762 13.171 7.63454 14.3953 6.69567C14.5902 6.54674 14.7255 6.62155 14.8819 6.73616C17.1344 8.38261 19.393 10.0201 21.3792 11.9953C21.5281 12.1436 21.6475 12.1552 21.8274 12.0612C22.2426 11.8443 22.6646 11.6398 23.0902 11.4442C24.4868 10.8025 25.95 10.3544 27.4365 9.98102C27.7618 9.89935 27.9012 9.74287 27.9616 9.4155C28.1194 8.56242 28.3109 7.71621 28.4989 6.86862C28.9457 4.85568 29.5751 2.90039 30.3739 1C30.3966 1 30.4199 1 30.4426 1C30.6196 1.06794 30.8049 1.04598 30.9861 1.04255C32.2901 1.01716 33.592 1.09128 34.8939 1.12354C35.6249 1.14138 35.629 1.1503 35.8198 1.85171C36.5136 4.40134 36.9927 6.9949 37.3695 9.60836C37.4058 9.8616 37.5143 9.957 37.7435 10.0098C39.7022 10.4614 41.5703 11.1642 43.3582 12.0791C43.597 12.2012 43.759 12.1841 43.9676 12.0091C46.1103 10.2116 48.384 8.6036 50.8341 7.24814C51.0901 7.10677 51.2569 7.0999 51.4985 7.28932C52.6974 8.22682 53.8443 9.22265 54.9712 10.2446C55.2134 10.4642 55.2285 10.6323 55.0851 10.9158C53.8683 13.324 52.6885 15.7522 51.1704 17.993C50.9995 18.2455 50.994 18.4411 51.1718 18.6999C51.67 19.4253 52.1463 20.1658 52.6192 20.9084C53.2094 21.837 53.6651 22.8369 54.1201 23.8355C54.2107 24.0339 54.3178 24.1869 54.5738 24.1787C55.8441 24.1375 57.1063 24.259 58.3691 24.3743C59.8707 24.5115 61.371 24.6632 62.8534 24.9487C63.3791 25.0503 63.3695 25.0695 63.4773 25.5993C63.7401 26.8862 63.9295 28.1853 64.1389 29.4811C64.1402 29.7103 64.1402 29.9395 64.1402 30.1681Z"/>
</mask>
<path d="M64.1402 30.1681C63.7772 30.5709 63.2858 30.7734 62.815 30.9992C60.9029 31.914 58.8975 32.588 56.8949 33.2674C55.8778 33.612 55.9148 33.614 55.7796 34.686C55.5641 36.397 55.3329 38.1093 54.8181 39.764C54.733 40.0372 54.7914 40.2177 54.9883 40.4009C55.9341 41.2815 56.9251 42.1112 57.8365 43.0295C58.925 44.1269 59.9496 45.2799 60.9345 46.4699C61.0532 46.6134 61.0731 46.7349 60.9825 46.9009C60.255 48.2372 59.5138 49.5645 58.6532 50.8211C58.4748 51.0819 58.2641 51.1753 57.9559 51.1272C57.608 51.073 57.2957 50.9611 57.0301 50.7216C56.0597 49.8459 55.2189 48.8473 54.3494 47.8776C52.3948 45.6985 50.4608 43.5017 48.5082 41.3206C48.2742 41.0591 48.2447 40.8347 48.397 40.5217C49.2728 38.7236 49.909 36.8458 50.2212 34.8652C50.4113 33.66 50.3489 32.4446 50.3098 31.236C50.2679 29.945 50.1101 28.6589 49.7491 27.4125C48.9804 24.7565 47.6881 22.3853 45.8186 20.3408C43.2175 17.4975 40.0337 15.6458 36.2762 14.7955C35.1122 14.5319 33.9208 14.5148 32.7314 14.5182C31.9085 14.5203 31.0836 14.4956 30.2648 14.5951C28.2484 14.8401 26.3412 15.4447 24.53 16.3623C22.758 17.26 21.1911 18.437 19.8124 19.8611C17.3197 22.4354 15.7076 25.4827 15.0583 29.0055C14.768 30.5805 14.779 32.1865 14.8586 33.7904C14.9739 36.106 15.6252 38.2734 16.6732 40.3138C18.5207 43.91 21.3037 46.5729 24.9398 48.3422C27.7069 49.6887 30.6388 50.1966 33.6957 50.0497C34.8274 49.9955 35.9454 49.8342 37.0407 49.5261C37.6989 49.3408 37.7298 49.3586 38.1292 49.9056C40.5107 53.1642 42.8887 56.4255 45.2695 59.6855C45.3588 59.8076 45.4322 59.9277 45.4301 60.0897C45.4246 60.5818 45.4219 61.0732 45.4308 61.5653C45.4342 61.7574 45.3478 61.8583 45.1789 61.9222C43.7144 62.4753 42.2512 63.0333 40.7379 63.4458C40.4668 63.5199 40.3473 63.3847 40.2066 63.1966C38.6069 61.0547 37.2795 58.7473 36.0655 56.372C35.9351 56.1174 35.7759 56.0474 35.5061 56.0336C33.9516 55.9575 32.3958 56.0233 30.8413 55.9911C30.4755 55.9835 30.1008 56.0213 29.746 55.9547C29.3136 55.8737 29.0576 56.0323 28.8311 56.3727C28.0844 57.4962 27.4098 58.6663 26.615 59.7589C25.7935 60.8872 24.9686 62.0107 24.0263 63.0443C23.8424 63.246 23.6872 63.3257 23.4093 63.22C22.0319 62.6943 20.6311 62.2317 19.2818 61.6318C18.9854 61.5001 18.881 61.3223 18.8941 61.0032C18.973 59.0692 19.2352 57.1585 19.6106 55.2622C19.7526 54.5457 19.892 53.8272 20.0732 53.1203C20.1562 52.797 20.0642 52.6028 19.8227 52.4154C19.0821 51.841 18.3437 51.2631 17.6134 50.6743C16.7933 50.0133 16.0528 49.2639 15.2889 48.5412C15.0961 48.3587 14.9355 48.2845 14.6582 48.3875C12.1113 49.3298 9.48961 49.9948 6.81576 50.4656C6.46849 50.5267 6.21799 50.4601 6.01622 50.1664C5.12745 48.87 4.41781 47.474 3.71846 46.0719C3.64159 45.9181 3.69719 45.8166 3.80219 45.7088C5.52688 43.9354 7.35589 42.278 9.32833 40.7825C9.61109 40.5684 9.89522 40.3577 10.1519 40.1113C10.2844 39.9843 10.3146 39.8608 10.2569 39.6844C9.81355 38.3207 9.56648 36.9145 9.38186 35.4973C9.31118 34.9544 9.26931 34.4074 9.21921 33.8625C9.18901 33.533 9.03116 33.3223 8.71134 33.2043C7.17745 32.636 5.6813 31.9772 4.21397 31.2552C3.11383 30.7144 2.0425 30.1228 1 29.4818C1 29.3219 1 29.1613 1 29.0014C1.0151 28.9348 1.03432 28.8689 1.04392 28.8016C1.23952 27.4434 1.49345 26.099 1.86681 24.7764C1.97799 24.3832 2.20927 24.2267 2.5888 24.1732C3.42747 24.0538 4.27231 24.0057 5.11578 23.992C6.93381 23.9618 8.75184 23.9714 10.5699 23.9741C10.8025 23.9748 10.9514 23.9192 11.0496 23.6914C11.8485 21.8473 12.8916 20.1425 14.046 18.5043C14.1984 18.2874 14.2128 18.1234 14.0776 17.89C12.6775 15.4694 11.4806 12.9575 10.6234 10.2885C10.5259 9.98445 10.5808 9.81562 10.8011 9.61042C11.9342 8.55762 13.171 7.63454 14.3953 6.69567C14.5902 6.54674 14.7255 6.62155 14.8819 6.73616C17.1344 8.38261 19.393 10.0201 21.3792 11.9953C21.5281 12.1436 21.6475 12.1552 21.8274 12.0612C22.2426 11.8443 22.6646 11.6398 23.0902 11.4442C24.4868 10.8025 25.95 10.3544 27.4365 9.98102C27.7618 9.89935 27.9012 9.74287 27.9616 9.4155C28.1194 8.56242 28.3109 7.71621 28.4989 6.86862C28.9457 4.85568 29.5751 2.90039 30.3739 1C30.3966 1 30.4199 1 30.4426 1C30.6196 1.06794 30.8049 1.04598 30.9861 1.04255C32.2901 1.01716 33.592 1.09128 34.8939 1.12354C35.6249 1.14138 35.629 1.1503 35.8198 1.85171C36.5136 4.40134 36.9927 6.9949 37.3695 9.60836C37.4058 9.8616 37.5143 9.957 37.7435 10.0098C39.7022 10.4614 41.5703 11.1642 43.3582 12.0791C43.597 12.2012 43.759 12.1841 43.9676 12.0091C46.1103 10.2116 48.384 8.6036 50.8341 7.24814C51.0901 7.10677 51.2569 7.0999 51.4985 7.28932C52.6974 8.22682 53.8443 9.22265 54.9712 10.2446C55.2134 10.4642 55.2285 10.6323 55.0851 10.9158C53.8683 13.324 52.6885 15.7522 51.1704 17.993C50.9995 18.2455 50.994 18.4411 51.1718 18.6999C51.67 19.4253 52.1463 20.1658 52.6192 20.9084C53.2094 21.837 53.6651 22.8369 54.1201 23.8355C54.2107 24.0339 54.3178 24.1869 54.5738 24.1787C55.8441 24.1375 57.1063 24.259 58.3691 24.3743C59.8707 24.5115 61.371 24.6632 62.8534 24.9487C63.3791 25.0503 63.3695 25.0695 63.4773 25.5993C63.7401 26.8862 63.9295 28.1853 64.1389 29.4811C64.1402 29.7103 64.1402 29.9395 64.1402 30.1681Z" fill="black"/>
<path d="M64.1402 30.1681C63.7772 30.5709 63.2858 30.7734 62.815 30.9992C60.9029 31.914 58.8975 32.588 56.8949 33.2674C55.8778 33.612 55.9148 33.614 55.7796 34.686C55.5641 36.397 55.3329 38.1093 54.8181 39.764C54.733 40.0372 54.7914 40.2177 54.9883 40.4009C55.9341 41.2815 56.9251 42.1112 57.8365 43.0295C58.925 44.1269 59.9496 45.2799 60.9345 46.4699C61.0532 46.6134 61.0731 46.7349 60.9825 46.9009C60.255 48.2372 59.5138 49.5645 58.6532 50.8211C58.4748 51.0819 58.2641 51.1753 57.9559 51.1272C57.608 51.073 57.2957 50.9611 57.0301 50.7216C56.0597 49.8459 55.2189 48.8473 54.3494 47.8776C52.3948 45.6985 50.4608 43.5017 48.5082 41.3206C48.2742 41.0591 48.2447 40.8347 48.397 40.5217C49.2728 38.7236 49.909 36.8458 50.2212 34.8652C50.4113 33.66 50.3489 32.4446 50.3098 31.236C50.2679 29.945 50.1101 28.6589 49.7491 27.4125C48.9804 24.7565 47.6881 22.3853 45.8186 20.3408C43.2175 17.4975 40.0337 15.6458 36.2762 14.7955C35.1122 14.5319 33.9208 14.5148 32.7314 14.5182C31.9085 14.5203 31.0836 14.4956 30.2648 14.5951C28.2484 14.8401 26.3412 15.4447 24.53 16.3623C22.758 17.26 21.1911 18.437 19.8124 19.8611C17.3197 22.4354 15.7076 25.4827 15.0583 29.0055C14.768 30.5805 14.779 32.1865 14.8586 33.7904C14.9739 36.106 15.6252 38.2734 16.6732 40.3138C18.5207 43.91 21.3037 46.5729 24.9398 48.3422C27.7069 49.6887 30.6388 50.1966 33.6957 50.0497C34.8274 49.9955 35.9454 49.8342 37.0407 49.5261C37.6989 49.3408 37.7298 49.3586 38.1292 49.9056C40.5107 53.1642 42.8887 56.4255 45.2695 59.6855C45.3588 59.8076 45.4322 59.9277 45.4301 60.0897C45.4246 60.5818 45.4219 61.0732 45.4308 61.5653C45.4342 61.7574 45.3478 61.8583 45.1789 61.9222C43.7144 62.4753 42.2512 63.0333 40.7379 63.4458C40.4668 63.5199 40.3473 63.3847 40.2066 63.1966C38.6069 61.0547 37.2795 58.7473 36.0655 56.372C35.9351 56.1174 35.7759 56.0474 35.5061 56.0336C33.9516 55.9575 32.3958 56.0233 30.8413 55.9911C30.4755 55.9835 30.1008 56.0213 29.746 55.9547C29.3136 55.8737 29.0576 56.0323 28.8311 56.3727C28.0844 57.4962 27.4098 58.6663 26.615 59.7589C25.7935 60.8872 24.9686 62.0107 24.0263 63.0443C23.8424 63.246 23.6872 63.3257 23.4093 63.22C22.0319 62.6943 20.6311 62.2317 19.2818 61.6318C18.9854 61.5001 18.881 61.3223 18.8941 61.0032C18.973 59.0692 19.2352 57.1585 19.6106 55.2622C19.7526 54.5457 19.892 53.8272 20.0732 53.1203C20.1562 52.797 20.0642 52.6028 19.8227 52.4154C19.0821 51.841 18.3437 51.2631 17.6134 50.6743C16.7933 50.0133 16.0528 49.2639 15.2889 48.5412C15.0961 48.3587 14.9355 48.2845 14.6582 48.3875C12.1113 49.3298 9.48961 49.9948 6.81576 50.4656C6.46849 50.5267 6.21799 50.4601 6.01622 50.1664C5.12745 48.87 4.41781 47.474 3.71846 46.0719C3.64159 45.9181 3.69719 45.8166 3.80219 45.7088C5.52688 43.9354 7.35589 42.278 9.32833 40.7825C9.61109 40.5684 9.89522 40.3577 10.1519 40.1113C10.2844 39.9843 10.3146 39.8608 10.2569 39.6844C9.81355 38.3207 9.56648 36.9145 9.38186 35.4973C9.31118 34.9544 9.26931 34.4074 9.21921 33.8625C9.18901 33.533 9.03116 33.3223 8.71134 33.2043C7.17745 32.636 5.6813 31.9772 4.21397 31.2552C3.11383 30.7144 2.0425 30.1228 1 29.4818C1 29.3219 1 29.1613 1 29.0014C1.0151 28.9348 1.03432 28.8689 1.04392 28.8016C1.23952 27.4434 1.49345 26.099 1.86681 24.7764C1.97799 24.3832 2.20927 24.2267 2.5888 24.1732C3.42747 24.0538 4.27231 24.0057 5.11578 23.992C6.93381 23.9618 8.75184 23.9714 10.5699 23.9741C10.8025 23.9748 10.9514 23.9192 11.0496 23.6914C11.8485 21.8473 12.8916 20.1425 14.046 18.5043C14.1984 18.2874 14.2128 18.1234 14.0776 17.89C12.6775 15.4694 11.4806 12.9575 10.6234 10.2885C10.5259 9.98445 10.5808 9.81562 10.8011 9.61042C11.9342 8.55762 13.171 7.63454 14.3953 6.69567C14.5902 6.54674 14.7255 6.62155 14.8819 6.73616C17.1344 8.38261 19.393 10.0201 21.3792 11.9953C21.5281 12.1436 21.6475 12.1552 21.8274 12.0612C22.2426 11.8443 22.6646 11.6398 23.0902 11.4442C24.4868 10.8025 25.95 10.3544 27.4365 9.98102C27.7618 9.89935 27.9012 9.74287 27.9616 9.4155C28.1194 8.56242 28.3109 7.71621 28.4989 6.86862C28.9457 4.85568 29.5751 2.90039 30.3739 1C30.3966 1 30.4199 1 30.4426 1C30.6196 1.06794 30.8049 1.04598 30.9861 1.04255C32.2901 1.01716 33.592 1.09128 34.8939 1.12354C35.6249 1.14138 35.629 1.1503 35.8198 1.85171C36.5136 4.40134 36.9927 6.9949 37.3695 9.60836C37.4058 9.8616 37.5143 9.957 37.7435 10.0098C39.7022 10.4614 41.5703 11.1642 43.3582 12.0791C43.597 12.2012 43.759 12.1841 43.9676 12.0091C46.1103 10.2116 48.384 8.6036 50.8341 7.24814C51.0901 7.10677 51.2569 7.0999 51.4985 7.28932C52.6974 8.22682 53.8443 9.22265 54.9712 10.2446C55.2134 10.4642 55.2285 10.6323 55.0851 10.9158C53.8683 13.324 52.6885 15.7522 51.1704 17.993C50.9995 18.2455 50.994 18.4411 51.1718 18.6999C51.67 19.4253 52.1463 20.1658 52.6192 20.9084C53.2094 21.837 53.6651 22.8369 54.1201 23.8355C54.2107 24.0339 54.3178 24.1869 54.5738 24.1787C55.8441 24.1375 57.1063 24.259 58.3691 24.3743C59.8707 24.5115 61.371 24.6632 62.8534 24.9487C63.3791 25.0503 63.3695 25.0695 63.4773 25.5993C63.7401 26.8862 63.9295 28.1853 64.1389 29.4811C64.1402 29.7103 64.1402 29.9395 64.1402 30.1681Z" fill="white"/>
<path d="M64.1402 30.1681C63.7772 30.5709 63.2858 30.7734 62.815 30.9992C60.9029 31.914 58.8975 32.588 56.8949 33.2674C55.8778 33.612 55.9148 33.614 55.7796 34.686C55.5641 36.397 55.3329 38.1093 54.8181 39.764C54.733 40.0372 54.7914 40.2177 54.9883 40.4009C55.9341 41.2815 56.9251 42.1112 57.8365 43.0295C58.925 44.1269 59.9496 45.2799 60.9345 46.4699C61.0532 46.6134 61.0731 46.7349 60.9825 46.9009C60.255 48.2372 59.5138 49.5645 58.6532 50.8211C58.4748 51.0819 58.2641 51.1753 57.9559 51.1272C57.608 51.073 57.2957 50.9611 57.0301 50.7216C56.0597 49.8459 55.2189 48.8473 54.3494 47.8776C52.3948 45.6985 50.4608 43.5017 48.5082 41.3206C48.2742 41.0591 48.2447 40.8347 48.397 40.5217C49.2728 38.7236 49.909 36.8458 50.2212 34.8652C50.4113 33.66 50.3489 32.4446 50.3098 31.236C50.2679 29.945 50.1101 28.6589 49.7491 27.4125C48.9804 24.7565 47.6881 22.3853 45.8186 20.3408C43.2175 17.4975 40.0337 15.6458 36.2762 14.7955C35.1122 14.5319 33.9208 14.5148 32.7314 14.5182C31.9085 14.5203 31.0836 14.4956 30.2648 14.5951C28.2484 14.8401 26.3412 15.4447 24.53 16.3623C22.758 17.26 21.1911 18.437 19.8124 19.8611C17.3197 22.4354 15.7076 25.4827 15.0583 29.0055C14.768 30.5805 14.779 32.1865 14.8586 33.7904C14.9739 36.106 15.6252 38.2734 16.6732 40.3138C18.5207 43.91 21.3037 46.5729 24.9398 48.3422C27.7069 49.6887 30.6388 50.1966 33.6957 50.0497C34.8274 49.9955 35.9454 49.8342 37.0407 49.5261C37.6989 49.3408 37.7298 49.3586 38.1292 49.9056C40.5107 53.1642 42.8887 56.4255 45.2695 59.6855C45.3588 59.8076 45.4322 59.9277 45.4301 60.0897C45.4246 60.5818 45.4219 61.0732 45.4308 61.5653C45.4342 61.7574 45.3478 61.8583 45.1789 61.9222C43.7144 62.4753 42.2512 63.0333 40.7379 63.4458C40.4668 63.5199 40.3473 63.3847 40.2066 63.1966C38.6069 61.0547 37.2795 58.7473 36.0655 56.372C35.9351 56.1174 35.7759 56.0474 35.5061 56.0336C33.9516 55.9575 32.3958 56.0233 30.8413 55.9911C30.4755 55.9835 30.1008 56.0213 29.746 55.9547C29.3136 55.8737 29.0576 56.0323 28.8311 56.3727C28.0844 57.4962 27.4098 58.6663 26.615 59.7589C25.7935 60.8872 24.9686 62.0107 24.0263 63.0443C23.8424 63.246 23.6872 63.3257 23.4093 63.22C22.0319 62.6943 20.6311 62.2317 19.2818 61.6318C18.9854 61.5001 18.881 61.3223 18.8941 61.0032C18.973 59.0692 19.2352 57.1585 19.6106 55.2622C19.7526 54.5457 19.892 53.8272 20.0732 53.1203C20.1562 52.797 20.0642 52.6028 19.8227 52.4154C19.0821 51.841 18.3437 51.2631 17.6134 50.6743C16.7933 50.0133 16.0528 49.2639 15.2889 48.5412C15.0961 48.3587 14.9355 48.2845 14.6582 48.3875C12.1113 49.3298 9.48961 49.9948 6.81576 50.4656C6.46849 50.5267 6.21799 50.4601 6.01622 50.1664C5.12745 48.87 4.41781 47.474 3.71846 46.0719C3.64159 45.9181 3.69719 45.8166 3.80219 45.7088C5.52688 43.9354 7.35589 42.278 9.32833 40.7825C9.61109 40.5684 9.89522 40.3577 10.1519 40.1113C10.2844 39.9843 10.3146 39.8608 10.2569 39.6844C9.81355 38.3207 9.56648 36.9145 9.38186 35.4973C9.31118 34.9544 9.26931 34.4074 9.21921 33.8625C9.18901 33.533 9.03116 33.3223 8.71134 33.2043C7.17745 32.636 5.6813 31.9772 4.21397 31.2552C3.11383 30.7144 2.0425 30.1228 1 29.4818C1 29.3219 1 29.1613 1 29.0014C1.0151 28.9348 1.03432 28.8689 1.04392 28.8016C1.23952 27.4434 1.49345 26.099 1.86681 24.7764C1.97799 24.3832 2.20927 24.2267 2.5888 24.1732C3.42747 24.0538 4.27231 24.0057 5.11578 23.992C6.93381 23.9618 8.75184 23.9714 10.5699 23.9741C10.8025 23.9748 10.9514 23.9192 11.0496 23.6914C11.8485 21.8473 12.8916 20.1425 14.046 18.5043C14.1984 18.2874 14.2128 18.1234 14.0776 17.89C12.6775 15.4694 11.4806 12.9575 10.6234 10.2885C10.5259 9.98445 10.5808 9.81562 10.8011 9.61042C11.9342 8.55762 13.171 7.63454 14.3953 6.69567C14.5902 6.54674 14.7255 6.62155 14.8819 6.73616C17.1344 8.38261 19.393 10.0201 21.3792 11.9953C21.5281 12.1436 21.6475 12.1552 21.8274 12.0612C22.2426 11.8443 22.6646 11.6398 23.0902 11.4442C24.4868 10.8025 25.95 10.3544 27.4365 9.98102C27.7618 9.89935 27.9012 9.74287 27.9616 9.4155C28.1194 8.56242 28.3109 7.71621 28.4989 6.86862C28.9457 4.85568 29.5751 2.90039 30.3739 1C30.3966 1 30.4199 1 30.4426 1C30.6196 1.06794 30.8049 1.04598 30.9861 1.04255C32.2901 1.01716 33.592 1.09128 34.8939 1.12354C35.6249 1.14138 35.629 1.1503 35.8198 1.85171C36.5136 4.40134 36.9927 6.9949 37.3695 9.60836C37.4058 9.8616 37.5143 9.957 37.7435 10.0098C39.7022 10.4614 41.5703 11.1642 43.3582 12.0791C43.597 12.2012 43.759 12.1841 43.9676 12.0091C46.1103 10.2116 48.384 8.6036 50.8341 7.24814C51.0901 7.10677 51.2569 7.0999 51.4985 7.28932C52.6974 8.22682 53.8443 9.22265 54.9712 10.2446C55.2134 10.4642 55.2285 10.6323 55.0851 10.9158C53.8683 13.324 52.6885 15.7522 51.1704 17.993C50.9995 18.2455 50.994 18.4411 51.1718 18.6999C51.67 19.4253 52.1463 20.1658 52.6192 20.9084C53.2094 21.837 53.6651 22.8369 54.1201 23.8355C54.2107 24.0339 54.3178 24.1869 54.5738 24.1787C55.8441 24.1375 57.1063 24.259 58.3691 24.3743C59.8707 24.5115 61.371 24.6632 62.8534 24.9487C63.3791 25.0503 63.3695 25.0695 63.4773 25.5993C63.7401 26.8862 63.9295 28.1853 64.1389 29.4811C64.1402 29.7103 64.1402 29.9395 64.1402 30.1681Z" stroke="white" stroke-width="0.4" mask="url(#path-1-outside-1_44_2606)"/>
<path d="M33.8088 23.5569C34.8519 23.5308 35.6783 23.898 36.4154 24.5822C38.7035 26.7091 40.8935 28.9286 42.9771 31.2566C43.9764 32.3732 44.0972 34.6373 42.8893 35.9248C42.5434 36.2941 42.1728 36.629 41.7871 36.9522C41.4336 37.2494 41.4213 37.2967 41.7198 37.6337C43.321 39.438 44.9297 41.2361 46.5308 43.0398C49.1724 46.0149 51.8154 48.9887 54.4467 51.972C55.6491 53.3351 56.8364 54.7118 58.0114 56.0988C58.7375 56.9553 58.789 57.9724 58.5837 59.019C58.524 59.3245 58.3367 59.5756 58.0924 59.7856C56.835 60.8666 55.5269 61.8851 54.2236 62.9097C53.5792 63.4162 52.8888 63.4636 52.1537 63.2666C51.4043 63.0655 50.7756 62.6434 50.2966 62.0354C48.9453 60.3196 47.6749 58.5427 46.3853 56.7803C43.671 53.0715 40.9669 49.3552 38.2608 45.6402C37.44 44.5133 36.6206 43.3843 35.8141 42.2464C35.6577 42.0261 35.5533 41.9959 35.3358 42.1702C34.8979 42.5189 34.4477 42.8531 33.9652 43.1406C32.5748 43.9704 30.3491 43.5648 29.3663 42.2684C28.2126 40.7461 27.1701 39.145 26.1063 37.5589C25.4187 36.5336 24.7303 35.5096 24.1023 34.4451C23.1847 32.8886 23.4812 31.0019 24.8449 29.8133C25.1695 29.5305 25.2272 29.5298 25.4969 29.8688C27.0754 31.8564 28.6498 33.8474 30.2297 35.8335C30.5358 36.2179 30.8542 36.5933 31.1816 36.9598C31.7155 37.5569 32.6633 37.6818 33.3256 37.2185C34.3482 36.5041 35.2967 35.6942 36.2383 34.8768C36.5746 34.5845 36.8862 34.2626 37.23 33.9798C37.9925 33.3519 37.8621 32.3601 37.3892 31.7658C36.9129 31.166 36.4332 30.5689 35.9487 29.9752C34.5891 28.3109 33.1815 26.6851 31.8617 24.9878C31.4863 24.5054 31.5035 24.4155 32.0038 24.0771C32.5611 23.7017 33.1719 23.5095 33.8088 23.5569ZM50.2101 57.1454C50.0742 58.4357 51.2972 59.5846 52.7014 59.5846C53.9779 59.5846 55.0719 58.4522 55.0671 57.1386C55.0616 55.7735 53.9642 54.6981 52.5957 54.6754C51.3288 54.6548 50.0564 55.8737 50.2101 57.1454Z" fill="black"/>
<path d="M33.8088 23.5569C34.8519 23.5308 35.6783 23.898 36.4154 24.5822C38.7035 26.7091 40.8935 28.9286 42.9771 31.2566C43.9764 32.3732 44.0972 34.6373 42.8893 35.9248C42.5434 36.2941 42.1728 36.629 41.7871 36.9522C41.4336 37.2494 41.4213 37.2967 41.7198 37.6337C43.321 39.438 44.9297 41.2361 46.5308 43.0398C49.1724 46.0149 51.8154 48.9887 54.4467 51.972C55.6491 53.3351 56.8364 54.7118 58.0114 56.0988C58.7375 56.9553 58.789 57.9724 58.5837 59.019C58.524 59.3245 58.3367 59.5756 58.0924 59.7856C56.835 60.8666 55.5269 61.8851 54.2236 62.9097C53.5792 63.4162 52.8888 63.4636 52.1537 63.2666C51.4043 63.0655 50.7756 62.6434 50.2966 62.0354C48.9453 60.3196 47.6749 58.5427 46.3853 56.7803C43.671 53.0715 40.9669 49.3552 38.2608 45.6402C37.44 44.5133 36.6206 43.3843 35.8141 42.2464C35.6577 42.0261 35.5533 41.9959 35.3358 42.1702C34.8979 42.5189 34.4477 42.8531 33.9652 43.1406C32.5748 43.9704 30.3491 43.5648 29.3663 42.2684C28.2126 40.7461 27.1701 39.145 26.1063 37.5589C25.4187 36.5336 24.7303 35.5096 24.1023 34.4451C23.1847 32.8886 23.4812 31.0019 24.8449 29.8133C25.1695 29.5305 25.2272 29.5298 25.4969 29.8688C27.0754 31.8564 28.6498 33.8474 30.2297 35.8335C30.5358 36.2179 30.8542 36.5933 31.1816 36.9598C31.7155 37.5569 32.6633 37.6818 33.3256 37.2185C34.3482 36.5041 35.2967 35.6942 36.2383 34.8768C36.5746 34.5845 36.8862 34.2626 37.23 33.9798C37.9925 33.3519 37.8621 32.3601 37.3892 31.7658C36.9129 31.166 36.4332 30.5689 35.9487 29.9752C34.5891 28.3109 33.1815 26.6851 31.8617 24.9878C31.4863 24.5054 31.5035 24.4155 32.0038 24.0771C32.5611 23.7017 33.1719 23.5095 33.8088 23.5569ZM50.2101 57.1454C50.0742 58.4357 51.2972 59.5846 52.7014 59.5846C53.9779 59.5846 55.0719 58.4522 55.0671 57.1386C55.0616 55.7735 53.9642 54.6981 52.5957 54.6754C51.3288 54.6548 50.0564 55.8737 50.2101 57.1454Z" fill="white"/>
<path d="M33.8088 23.5569C34.8519 23.5308 35.6783 23.898 36.4154 24.5822C38.7035 26.7091 40.8935 28.9286 42.9771 31.2566C43.9764 32.3732 44.0972 34.6373 42.8893 35.9248C42.5434 36.2941 42.1728 36.629 41.7871 36.9522C41.4336 37.2494 41.4213 37.2967 41.7198 37.6337C43.321 39.438 44.9297 41.2361 46.5308 43.0398C49.1724 46.0149 51.8154 48.9887 54.4467 51.972C55.6491 53.3351 56.8364 54.7118 58.0114 56.0988C58.7375 56.9553 58.789 57.9724 58.5837 59.019C58.524 59.3245 58.3367 59.5756 58.0924 59.7856C56.835 60.8666 55.5269 61.8851 54.2236 62.9097C53.5792 63.4162 52.8888 63.4636 52.1537 63.2666C51.4043 63.0655 50.7756 62.6434 50.2966 62.0354C48.9453 60.3196 47.6749 58.5427 46.3853 56.7803C43.671 53.0715 40.9669 49.3552 38.2608 45.6402C37.44 44.5133 36.6206 43.3843 35.8141 42.2464C35.6577 42.0261 35.5533 41.9959 35.3358 42.1702C34.8979 42.5189 34.4477 42.8531 33.9652 43.1406C32.5748 43.9704 30.3491 43.5648 29.3663 42.2684C28.2126 40.7461 27.1701 39.145 26.1063 37.5589C25.4187 36.5336 24.7303 35.5096 24.1023 34.4451C23.1847 32.8886 23.4812 31.0019 24.8449 29.8133C25.1695 29.5305 25.2272 29.5298 25.4969 29.8688C27.0754 31.8564 28.6498 33.8474 30.2297 35.8335C30.5358 36.2179 30.8542 36.5933 31.1816 36.9598C31.7155 37.5569 32.6633 37.6818 33.3256 37.2185C34.3482 36.5041 35.2967 35.6942 36.2383 34.8768C36.5746 34.5845 36.8862 34.2626 37.23 33.9798C37.9925 33.3519 37.8621 32.3601 37.3892 31.7658C36.9129 31.166 36.4332 30.5689 35.9487 29.9752C34.5891 28.3109 33.1815 26.6851 31.8617 24.9878C31.4863 24.5054 31.5035 24.4155 32.0038 24.0771C32.5611 23.7017 33.1719 23.5095 33.8088 23.5569ZM50.2101 57.1454C50.0742 58.4357 51.2972 59.5846 52.7014 59.5846C53.9779 59.5846 55.0719 58.4522 55.0671 57.1386C55.0616 55.7735 53.9642 54.6981 52.5957 54.6754C51.3288 54.6548 50.0564 55.8737 50.2101 57.1454Z" stroke="#02A653"/>
</svg>
