<svg width="52" height="71" viewBox="0 0 52 71" fill="none" xmlns="http://www.w3.org/2000/svg">
<path d="M21.5845 70.0365C21.0659 69.8648 20.8119 69.5 20.7225 68.9599C20.5616 67.9692 20.347 66.9856 20.1789 65.9949C20.1324 65.7267 19.9786 65.6623 19.7533 65.6229C18.7447 65.4405 17.7396 65.2474 16.7346 65.0686C16.2875 64.9899 15.9656 64.7574 15.819 64.321C15.6688 63.8704 15.8083 63.4841 16.1301 63.1551C16.6273 62.6472 17.1352 62.1465 17.6359 61.6457C18.877 60.4046 20.1181 59.1636 21.3592 57.9225C21.4271 57.8545 21.4915 57.7258 21.5988 57.7615C21.6954 57.7973 21.6846 57.9332 21.6989 58.0298C21.7812 58.5591 21.8527 59.0885 21.935 59.6178C22.1961 61.3524 23.92 62.5792 25.6475 62.2752C26.674 62.0964 27.7041 61.939 28.7306 61.7709C28.9487 61.7351 29.124 61.8317 29.2778 61.9784C29.8286 62.497 29.8286 62.497 29.3028 63.0227C27.1139 65.2116 24.925 67.3969 22.7397 69.5894C22.5466 69.7825 22.3392 69.9435 22.0816 70.0329C21.9171 70.0365 21.7526 70.0365 21.5845 70.0365Z" fill="black"/>
<path d="M21.5845 70.0365C21.0659 69.8648 20.8119 69.5 20.7225 68.9599C20.5616 67.9692 20.347 66.9856 20.1789 65.9949C20.1324 65.7267 19.9786 65.6623 19.7533 65.6229C18.7447 65.4405 17.7396 65.2474 16.7346 65.0686C16.2875 64.9899 15.9656 64.7574 15.819 64.321C15.6688 63.8704 15.8083 63.4841 16.1301 63.1551C16.6273 62.6472 17.1352 62.1465 17.6359 61.6457C18.877 60.4046 20.1181 59.1636 21.3592 57.9225C21.4271 57.8545 21.4915 57.7258 21.5988 57.7615C21.6954 57.7973 21.6846 57.9332 21.6989 58.0298C21.7812 58.5591 21.8527 59.0885 21.935 59.6178C22.1961 61.3524 23.92 62.5792 25.6475 62.2752C26.674 62.0964 27.7041 61.939 28.7306 61.7709C28.9487 61.7351 29.124 61.8317 29.2778 61.9784C29.8286 62.497 29.8286 62.497 29.3028 63.0227C27.1139 65.2116 24.925 67.3969 22.7397 69.5894C22.5466 69.7825 22.3392 69.9435 22.0816 70.0329C21.9171 70.0365 21.7526 70.0365 21.5845 70.0365Z" fill="white"/>
<path d="M45.3796 70.0361C45.122 69.9467 44.911 69.7929 44.7179 69.5962C42.4539 67.325 40.1863 65.061 37.9223 62.797C37.6576 62.5324 37.6791 62.5467 37.8937 62.2605C38.2192 61.8278 38.6126 61.7276 39.1312 61.8349C40.0432 62.0173 40.9624 62.1783 41.8852 62.2963C43.7593 62.5324 45.2615 61.2591 45.5262 59.5423C45.6085 59.013 45.68 58.4836 45.7551 57.9543C45.7658 57.8792 45.7694 57.7898 45.8445 57.7647C45.9232 57.7397 45.9733 57.8255 46.0233 57.8756C47.8152 59.6639 49.6035 61.4558 51.3918 63.2441C51.585 63.4372 51.6529 63.684 51.703 63.938C51.703 63.9737 51.703 64.0131 51.703 64.0488C51.6029 64.7284 51.1665 65.0181 50.5227 65.1218C49.5427 65.2792 48.5699 65.4902 47.5899 65.6583C47.3968 65.6905 47.3217 65.7799 47.2895 65.9516C47.1035 66.9566 46.9032 67.9581 46.7387 68.9631C46.6528 69.4996 46.3953 69.8644 45.8803 70.0397C45.7122 70.0361 45.5441 70.0361 45.3796 70.0361Z" fill="black"/>
<path d="M45.3796 70.0361C45.122 69.9467 44.911 69.7929 44.7179 69.5962C42.4539 67.325 40.1863 65.061 37.9223 62.797C37.6576 62.5324 37.6791 62.5467 37.8937 62.2605C38.2192 61.8278 38.6126 61.7276 39.1312 61.8349C40.0432 62.0173 40.9624 62.1783 41.8852 62.2963C43.7593 62.5324 45.2615 61.2591 45.5262 59.5423C45.6085 59.013 45.68 58.4836 45.7551 57.9543C45.7658 57.8792 45.7694 57.7898 45.8445 57.7647C45.9232 57.7397 45.9733 57.8255 46.0233 57.8756C47.8152 59.6639 49.6035 61.4558 51.3918 63.2441C51.585 63.4372 51.6529 63.684 51.703 63.938C51.703 63.9737 51.703 64.0131 51.703 64.0488C51.6029 64.7284 51.1665 65.0181 50.5227 65.1218C49.5427 65.2792 48.5699 65.4902 47.5899 65.6583C47.3968 65.6905 47.3217 65.7799 47.2895 65.9516C47.1035 66.9566 46.9032 67.9581 46.7387 68.9631C46.6528 69.4996 46.3953 69.8644 45.8803 70.0397C45.7122 70.0361 45.5441 70.0361 45.3796 70.0361Z" fill="white"/>
<path d="M46.8853 34.6957C46.6206 33.3437 45.9554 32.2958 44.8323 31.5554C44.4747 31.3194 44.0955 31.1227 43.6807 31.0225C43.4196 30.9581 43.3588 30.8258 43.3588 30.5754C43.3695 28.4974 43.3623 26.4158 43.3623 24.3378C43.3623 18.3935 43.3623 12.4527 43.3623 6.5084C43.3623 5.53198 42.8294 5.00264 41.853 5.00264C29.9679 5.00264 18.0792 5.00264 6.19414 5.00264C5.207 5.00264 4.68481 5.52483 4.68481 6.50482C4.68481 22.2741 4.68481 38.0434 4.68123 53.8127C4.68123 54.3921 4.88152 54.8356 5.38225 55.1289C5.58612 55.2505 5.81502 55.272 6.05108 55.272C9.52755 55.2684 13.0004 55.272 16.4769 55.2684C16.7094 55.2684 16.899 55.3185 17.0849 55.4723C17.5821 55.88 18.1865 56.1089 18.7516 56.4022C19.0557 56.5596 19.0628 56.5667 18.8124 56.8171C18.1543 57.4788 17.4927 58.1368 16.8346 58.7985C16.7237 58.913 16.6021 58.9631 16.4411 58.9631C12.8824 58.9595 9.32368 59.006 5.76495 58.9452C3.39365 58.9022 1.53023 57.139 1.10462 54.9215C1.03308 54.5495 1.00089 54.1704 1.00089 53.7948C1.00089 38.0363 0.997318 22.2741 1.00447 6.51555C1.00447 4.34812 1.98446 2.7458 3.9516 1.79442C4.56678 1.4904 5.22488 1.35449 5.91159 1.35449C17.9827 1.35449 30.0538 1.35449 42.1248 1.35449C44.5069 1.35449 46.5956 3.15711 46.9568 5.51052C46.9926 5.73942 47.0069 5.96833 47.0069 6.20081C47.0069 12.1165 47.0033 18.0323 47.0033 23.948C47.0033 26.001 47.0105 28.0504 46.9926 30.1033C46.9819 31.5519 46.939 33.004 46.9497 34.4525C46.9497 34.524 46.9676 34.6027 46.8853 34.6957Z" fill="black"/>
<path d="M46.8853 34.6957C46.6206 33.3437 45.9554 32.2958 44.8323 31.5554C44.4747 31.3194 44.0955 31.1227 43.6807 31.0225C43.4196 30.9581 43.3588 30.8258 43.3588 30.5754C43.3695 28.4974 43.3623 26.4158 43.3623 24.3378C43.3623 18.3935 43.3623 12.4527 43.3623 6.5084C43.3623 5.53198 42.8294 5.00264 41.853 5.00264C29.9679 5.00264 18.0792 5.00264 6.19414 5.00264C5.207 5.00264 4.68481 5.52483 4.68481 6.50482C4.68481 22.2741 4.68481 38.0434 4.68123 53.8127C4.68123 54.3921 4.88152 54.8356 5.38225 55.1289C5.58612 55.2505 5.81502 55.272 6.05108 55.272C9.52755 55.2684 13.0004 55.272 16.4769 55.2684C16.7094 55.2684 16.899 55.3185 17.0849 55.4723C17.5821 55.88 18.1865 56.1089 18.7516 56.4022C19.0557 56.5596 19.0628 56.5667 18.8124 56.8171C18.1543 57.4788 17.4927 58.1368 16.8346 58.7985C16.7237 58.913 16.6021 58.9631 16.4411 58.9631C12.8824 58.9595 9.32368 59.006 5.76495 58.9452C3.39365 58.9022 1.53023 57.139 1.10462 54.9215C1.03308 54.5495 1.00089 54.1704 1.00089 53.7948C1.00089 38.0363 0.997318 22.2741 1.00447 6.51555C1.00447 4.34812 1.98446 2.7458 3.9516 1.79442C4.56678 1.4904 5.22488 1.35449 5.91159 1.35449C17.9827 1.35449 30.0538 1.35449 42.1248 1.35449C44.5069 1.35449 46.5956 3.15711 46.9568 5.51052C46.9926 5.73942 47.0069 5.96833 47.0069 6.20081C47.0069 12.1165 47.0033 18.0323 47.0033 23.948C47.0033 26.001 47.0105 28.0504 46.9926 30.1033C46.9819 31.5519 46.939 33.004 46.9497 34.4525C46.9497 34.524 46.9676 34.6027 46.8853 34.6957Z" fill="white"/>
<path d="M46.8853 34.6957C46.6206 33.3437 45.9554 32.2958 44.8323 31.5554C44.4747 31.3194 44.0955 31.1227 43.6807 31.0225C43.4196 30.9581 43.3588 30.8258 43.3588 30.5754C43.3695 28.4974 43.3623 26.4158 43.3623 24.3378C43.3623 18.3935 43.3623 12.4527 43.3623 6.5084C43.3623 5.53198 42.8294 5.00264 41.853 5.00264C29.9679 5.00264 18.0792 5.00264 6.19414 5.00264C5.207 5.00264 4.68481 5.52483 4.68481 6.50482C4.68481 22.2741 4.68481 38.0434 4.68123 53.8127C4.68123 54.3921 4.88152 54.8356 5.38225 55.1289C5.58612 55.2505 5.81502 55.272 6.05108 55.272C9.52755 55.2684 13.0004 55.272 16.4769 55.2684C16.7094 55.2684 16.899 55.3185 17.0849 55.4723C17.5821 55.88 18.1865 56.1089 18.7516 56.4022C19.0557 56.5596 19.0628 56.5667 18.8124 56.8171C18.1543 57.4788 17.4927 58.1368 16.8346 58.7985C16.7237 58.913 16.6021 58.9631 16.4411 58.9631C12.8824 58.9595 9.32368 59.006 5.76495 58.9452C3.39365 58.9022 1.53023 57.139 1.10462 54.9215C1.03308 54.5495 1.00089 54.1704 1.00089 53.7948C1.00089 38.0363 0.997318 22.2741 1.00447 6.51555C1.00447 4.34812 1.98446 2.7458 3.9516 1.79442C4.56678 1.4904 5.22488 1.35449 5.91159 1.35449C17.9827 1.35449 30.0538 1.35449 42.1248 1.35449C44.5069 1.35449 46.5956 3.15711 46.9568 5.51052C46.9926 5.73942 47.0069 5.96833 47.0069 6.20081C47.0069 12.1165 47.0033 18.0323 47.0033 23.948C47.0033 26.001 47.0105 28.0504 46.9926 30.1033C46.9819 31.5519 46.939 33.004 46.9497 34.4525C46.9497 34.524 46.9676 34.6027 46.8853 34.6957Z" stroke="white" stroke-width="2"/>
<path d="M28.6123 60.5619C28.0901 60.6477 27.3963 60.7586 26.706 60.8731C26.2232 60.9518 25.7439 61.0626 25.2575 61.0984C24.2703 61.1735 23.2796 60.4832 23.1222 59.2779C22.9935 58.3086 22.8361 57.3429 22.6895 56.3773C22.5857 55.7049 22.2209 55.2256 21.6165 54.9252C20.7402 54.4852 19.8639 54.0525 18.9877 53.6125C17.8646 53.0474 17.4926 51.8993 18.0685 50.7799C18.512 49.9179 18.9555 49.0559 19.4097 48.1975C19.728 47.5895 19.7531 46.9886 19.4312 46.3735C18.9877 45.5222 18.5477 44.6674 18.1078 43.8126C17.4783 42.593 17.836 41.4807 19.0592 40.8691C19.8782 40.4577 20.6901 40.0429 21.5163 39.6494C22.2424 39.3025 22.6251 38.7374 22.7288 37.9541C22.854 37.0206 22.997 36.0907 23.133 35.1608C23.2868 34.0878 24.2775 33.1865 25.6974 33.4798C26.6273 33.6729 27.568 33.8124 28.505 33.9555C29.1274 34.0485 29.6746 33.866 30.1217 33.4118C30.8298 32.6965 31.5559 31.9955 32.2426 31.2587C33.0008 30.4468 34.4065 30.4146 35.1933 31.2515C35.8621 31.9669 36.5632 32.6536 37.2499 33.351C37.7542 33.8625 38.3479 34.0592 39.0668 33.9268C40.0539 33.7444 41.0482 33.5871 42.0425 33.4297C43.1942 33.2437 44.1742 34.0699 44.3423 35.3325C44.4711 36.2838 44.6248 37.2281 44.7715 38.1759C44.8752 38.8268 45.2436 39.2846 45.8266 39.5779C46.7029 40.0178 47.5791 40.4542 48.4554 40.8941C49.5785 41.4592 49.9576 42.6001 49.3853 43.7196C48.9347 44.5995 48.4804 45.4757 48.0191 46.352C47.6972 46.9672 47.715 47.5681 48.0369 48.1797C48.4947 49.0559 48.949 49.9322 49.396 50.8156C49.9504 51.9101 49.5713 53.0474 48.4769 53.5982C47.6364 54.0239 46.7959 54.4566 45.9446 54.8608C45.2078 55.2113 44.8251 55.7728 44.7214 56.5776C44.6034 57.511 44.4639 58.441 44.2994 59.3673C44.0776 60.6084 43.0905 61.2665 41.8458 61.0519C40.8909 60.8874 39.9359 60.7264 38.9809 60.5798C38.33 60.4796 37.7577 60.6549 37.2892 61.1377C36.6132 61.8352 35.9229 62.5183 35.2505 63.2158C34.3707 64.1278 33.1296 64.1457 32.2283 63.2408C31.5237 62.5326 30.8298 61.8173 30.1288 61.1055C29.7533 60.7264 29.3098 60.5547 28.6123 60.5619ZM21.9348 46.9851C21.9634 53.4373 27.1245 58.6699 33.5731 58.7486C40.0682 58.8272 45.4904 53.6841 45.5047 46.9779C45.5154 40.4256 40.2757 35.1965 33.734 35.1858C27.1102 35.1715 21.9455 40.5507 21.9348 46.9851Z" fill="black"/>
<path d="M28.6123 60.5619C28.0901 60.6477 27.3963 60.7586 26.706 60.8731C26.2232 60.9518 25.7439 61.0626 25.2575 61.0984C24.2703 61.1735 23.2796 60.4832 23.1222 59.2779C22.9935 58.3086 22.8361 57.3429 22.6895 56.3773C22.5857 55.7049 22.2209 55.2256 21.6165 54.9252C20.7402 54.4852 19.8639 54.0525 18.9877 53.6125C17.8646 53.0474 17.4926 51.8993 18.0685 50.7799C18.512 49.9179 18.9555 49.0559 19.4097 48.1975C19.728 47.5895 19.7531 46.9886 19.4312 46.3735C18.9877 45.5222 18.5477 44.6674 18.1078 43.8126C17.4783 42.593 17.836 41.4807 19.0592 40.8691C19.8782 40.4577 20.6901 40.0429 21.5163 39.6494C22.2424 39.3025 22.6251 38.7374 22.7288 37.9541C22.854 37.0206 22.997 36.0907 23.133 35.1608C23.2868 34.0878 24.2775 33.1865 25.6974 33.4798C26.6273 33.6729 27.568 33.8124 28.505 33.9555C29.1274 34.0485 29.6746 33.866 30.1217 33.4118C30.8298 32.6965 31.5559 31.9955 32.2426 31.2587C33.0008 30.4468 34.4065 30.4146 35.1933 31.2515C35.8621 31.9669 36.5632 32.6536 37.2499 33.351C37.7542 33.8625 38.3479 34.0592 39.0668 33.9268C40.0539 33.7444 41.0482 33.5871 42.0425 33.4297C43.1942 33.2437 44.1742 34.0699 44.3423 35.3325C44.4711 36.2838 44.6248 37.2281 44.7715 38.1759C44.8752 38.8268 45.2436 39.2846 45.8266 39.5779C46.7029 40.0178 47.5791 40.4542 48.4554 40.8941C49.5785 41.4592 49.9576 42.6001 49.3853 43.7196C48.9347 44.5995 48.4804 45.4757 48.0191 46.352C47.6972 46.9672 47.715 47.5681 48.0369 48.1797C48.4947 49.0559 48.949 49.9322 49.396 50.8156C49.9504 51.9101 49.5713 53.0474 48.4769 53.5982C47.6364 54.0239 46.7959 54.4566 45.9446 54.8608C45.2078 55.2113 44.8251 55.7728 44.7214 56.5776C44.6034 57.511 44.4639 58.441 44.2994 59.3673C44.0776 60.6084 43.0905 61.2665 41.8458 61.0519C40.8909 60.8874 39.9359 60.7264 38.9809 60.5798C38.33 60.4796 37.7577 60.6549 37.2892 61.1377C36.6132 61.8352 35.9229 62.5183 35.2505 63.2158C34.3707 64.1278 33.1296 64.1457 32.2283 63.2408C31.5237 62.5326 30.8298 61.8173 30.1288 61.1055C29.7533 60.7264 29.3098 60.5547 28.6123 60.5619ZM21.9348 46.9851C21.9634 53.4373 27.1245 58.6699 33.5731 58.7486C40.0682 58.8272 45.4904 53.6841 45.5047 46.9779C45.5154 40.4256 40.2757 35.1965 33.734 35.1858C27.1102 35.1715 21.9455 40.5507 21.9348 46.9851Z" fill="white"/>
<path d="M23.97 16.3083C19.7103 16.3083 15.447 16.3083 11.1872 16.3083C10.2895 16.3083 9.56701 15.7361 9.42394 14.9277C9.2308 13.8262 9.97832 12.8998 11.0978 12.8497C11.1729 12.8462 11.2444 12.8497 11.3195 12.8497C19.7568 12.8497 28.1976 12.8497 36.6348 12.8497C37.1177 12.8497 37.5755 12.932 37.951 13.261C38.5412 13.7761 38.7236 14.5021 38.4553 15.2175C38.205 15.8827 37.5683 16.3083 36.8065 16.3083C32.5289 16.3083 28.2477 16.3083 23.97 16.3083Z" fill="black"/>
<path d="M23.97 16.3083C19.7103 16.3083 15.447 16.3083 11.1872 16.3083C10.2895 16.3083 9.56701 15.7361 9.42394 14.9277C9.2308 13.8262 9.97832 12.8998 11.0978 12.8497C11.1729 12.8462 11.2444 12.8497 11.3195 12.8497C19.7568 12.8497 28.1976 12.8497 36.6348 12.8497C37.1177 12.8497 37.5755 12.932 37.951 13.261C38.5412 13.7761 38.7236 14.5021 38.4553 15.2175C38.205 15.8827 37.5683 16.3083 36.8065 16.3083C32.5289 16.3083 28.2477 16.3083 23.97 16.3083Z" fill="white"/>
<path d="M23.97 16.3083C19.7103 16.3083 15.447 16.3083 11.1872 16.3083C10.2895 16.3083 9.56701 15.7361 9.42394 14.9277C9.2308 13.8262 9.97832 12.8998 11.0978 12.8497C11.1729 12.8462 11.2444 12.8497 11.3195 12.8497C19.7568 12.8497 28.1976 12.8497 36.6348 12.8497C37.1177 12.8497 37.5755 12.932 37.951 13.261C38.5412 13.7761 38.7236 14.5021 38.4553 15.2175C38.205 15.8827 37.5683 16.3083 36.8065 16.3083C32.5289 16.3083 28.2477 16.3083 23.97 16.3083Z" stroke="white"/>
<path d="M23.9951 21.4873C28.2728 21.4873 32.554 21.5016 36.8316 21.4766C37.6864 21.473 38.5806 22.1669 38.577 23.1719C38.5734 24.1519 37.8366 24.903 36.8352 24.9066C32.5289 24.9137 28.2227 24.9101 23.9164 24.9101C19.6853 24.9101 15.4506 24.9101 11.2194 24.9101C10.404 24.9101 9.7745 24.5095 9.50983 23.8264C9.01268 22.5424 10.0749 21.473 11.1014 21.4802C15.4005 21.5016 19.696 21.4873 23.9951 21.4873Z" fill="black"/>
<path d="M23.9951 21.4873C28.2728 21.4873 32.554 21.5016 36.8316 21.4766C37.6864 21.473 38.5806 22.1669 38.577 23.1719C38.5734 24.1519 37.8366 24.903 36.8352 24.9066C32.5289 24.9137 28.2227 24.9101 23.9164 24.9101C19.6853 24.9101 15.4506 24.9101 11.2194 24.9101C10.404 24.9101 9.7745 24.5095 9.50983 23.8264C9.01268 22.5424 10.0749 21.473 11.1014 21.4802C15.4005 21.5016 19.696 21.4873 23.9951 21.4873Z" fill="white"/>
<path d="M23.9951 21.4873C28.2728 21.4873 32.554 21.5016 36.8316 21.4766C37.6864 21.473 38.5806 22.1669 38.577 23.1719C38.5734 24.1519 37.8366 24.903 36.8352 24.9066C32.5289 24.9137 28.2227 24.9101 23.9164 24.9101C19.6853 24.9101 15.4506 24.9101 11.2194 24.9101C10.404 24.9101 9.7745 24.5095 9.50983 23.8264C9.01268 22.5424 10.0749 21.473 11.1014 21.4802C15.4005 21.5016 19.696 21.4873 23.9951 21.4873Z" stroke="white"/>
<path d="M33.7233 57.0748C28.4513 57.157 23.5728 52.8436 23.5764 46.9279C23.58 41.2483 28.2081 36.7381 33.8413 36.7989C39.3064 36.8597 43.8844 41.2268 43.8737 46.9601C43.863 52.8758 39.0024 57.157 33.7233 57.0748Z" fill="black"/>
<path d="M33.7233 57.0748C28.4513 57.157 23.5728 52.8436 23.5764 46.9279C23.58 41.2483 28.2081 36.7381 33.8413 36.7989C39.3064 36.8597 43.8844 41.2268 43.8737 46.9601C43.863 52.8758 39.0024 57.157 33.7233 57.0748Z" fill="white"/>
</svg>
