<svg width="33" height="32" viewBox="0 0 33 32" fill="none" xmlns="http://www.w3.org/2000/svg">
<g filter="url(#filter0_d_29_3)">
<path d="M30.0659 4.56535C30.0659 10.1896 30.0659 15.8155 30.0659 21.4397C30.0608 21.4652 30.0523 21.4923 30.0506 21.5177C30.0421 21.8058 29.9895 22.0888 29.908 22.3633C29.7008 23.053 29.3239 23.6342 28.7788 24.107C28.3628 24.4679 27.8874 24.7204 27.3593 24.8712C26.9857 24.978 26.602 25 26.2148 25C20.7778 24.9966 15.3408 24.9983 9.90373 24.9983C9.64903 24.9983 9.39602 25.0051 9.14302 24.9644C8.70663 24.8949 8.29401 24.7577 7.90857 24.5408C7.24804 24.1697 6.74543 23.646 6.40243 22.9716C6.1681 22.509 6.03736 22.0176 6.01528 21.499C6.01358 21.4618 6.00509 21.4262 6 21.3889C6 15.8019 6 10.215 6 4.62635C6.00509 4.59754 6.01189 4.57043 6.01528 4.54162C6.03226 4.37725 6.04075 4.20949 6.06792 4.04681C6.17999 3.40627 6.44828 2.8352 6.86599 2.33531C7.19031 1.94726 7.57915 1.63715 8.03252 1.40669C8.48928 1.17623 8.96982 1.04406 9.48092 1.01525C9.51149 1.01356 9.54205 1.00508 9.57092 1C15.2117 1 20.8525 1 26.4933 1C26.5103 1.00508 26.529 1.01186 26.5459 1.01525C26.6716 1.02881 26.7989 1.03559 26.9246 1.05423C27.5936 1.1542 28.1896 1.42364 28.7126 1.85236C29.1201 2.18619 29.441 2.59119 29.6754 3.06227C29.874 3.46219 29.9963 3.88244 30.0388 4.32641C30.0455 4.40606 30.0574 4.4857 30.0659 4.56535ZM19.6537 10.9521C19.6537 10.3743 19.6537 9.79644 19.652 9.22029C19.652 9.12879 19.6418 9.03728 19.6265 8.94747C19.6011 8.79835 19.5162 8.71531 19.3735 8.69159C19.3175 8.68312 19.2615 8.67803 19.2054 8.67803C18.4617 8.67634 17.718 8.67803 16.9742 8.67803C16.7535 8.67803 16.5311 8.67803 16.3103 8.67803C16.0081 8.67973 15.857 8.91866 15.9945 9.1864C16.042 9.2796 16.11 9.36433 16.1796 9.44567C16.4564 9.76594 16.6075 10.137 16.6109 10.5573C16.6177 11.5283 16.6143 12.501 16.6109 13.4719C16.6109 13.5533 16.5922 13.638 16.5718 13.7176C16.548 13.8125 16.4801 13.8549 16.3833 13.86C16.2594 13.8651 16.1575 13.8075 16.0607 13.7414C15.8298 13.5821 15.6447 13.3753 15.4698 13.1584C15.0555 12.6484 14.7159 12.0892 14.4069 11.5113C14.0214 10.7895 13.6988 10.0422 13.4356 9.26774C13.3999 9.16268 13.349 9.05931 13.293 8.96441C13.1639 8.74582 12.9466 8.68312 12.7139 8.68142C12.0789 8.67634 11.4438 8.67634 10.8088 8.68142C10.5507 8.68312 10.3707 8.8746 10.3707 9.13048C10.3707 9.34738 10.425 9.55412 10.4811 9.76086C10.7375 10.7064 11.1467 11.5893 11.6136 12.4467C11.9617 13.0856 12.3523 13.699 12.77 14.2955C13.0637 14.7157 13.3677 15.1292 13.7107 15.5122C14.1488 16.0002 14.6293 16.4391 15.1676 16.8153C15.6532 17.1542 16.1728 17.4321 16.7331 17.6304C17.3393 17.8439 17.9625 17.9506 18.606 17.9184C18.82 17.9083 19.0339 17.8812 19.2445 17.8422C19.4041 17.8134 19.5586 17.749 19.6367 17.5914C19.6775 17.5101 19.703 17.4135 19.7047 17.3237C19.7114 16.8 19.708 16.2764 19.708 15.7545C19.708 15.6359 19.7199 15.5173 19.7675 15.4071C19.8235 15.2766 19.922 15.2055 20.068 15.2038C20.1886 15.2021 20.3041 15.2241 20.4161 15.2665C20.6674 15.3614 20.8848 15.5122 21.0919 15.6766C21.5793 16.0629 22.0106 16.5069 22.4351 16.9593C22.6303 17.1678 22.8188 17.383 23.0141 17.5914C23.2263 17.8202 23.4827 17.9337 23.8037 17.9252C24.2774 17.9134 24.7511 17.9218 25.2266 17.9218C25.4117 17.9218 25.5984 17.9235 25.7835 17.9201C25.9788 17.9184 26.1045 17.8134 26.1486 17.6253C26.1843 17.4711 26.1588 17.3237 26.1045 17.1796C25.9958 16.8949 25.8362 16.6374 25.6477 16.4001C25.3845 16.0697 25.1077 15.7477 24.8326 15.4275C24.5983 15.1563 24.3606 14.8869 24.1195 14.6225C23.9004 14.3819 23.6695 14.1531 23.4488 13.9125C23.2926 13.7431 23.2705 13.6007 23.3859 13.4008C23.498 13.2059 23.6288 13.0229 23.7561 12.8365C24.2927 12.0519 24.8174 11.2605 25.2826 10.4302C25.4609 10.1116 25.6341 9.79136 25.7462 9.44228C25.7818 9.33213 25.8073 9.22029 25.792 9.10506C25.7666 8.90511 25.612 8.77971 25.3845 8.77971C24.7477 8.77801 24.111 8.77801 23.4725 8.77971C23.1924 8.7814 22.9886 8.9068 22.8613 9.15929C22.7203 9.44058 22.5777 9.72019 22.4283 9.99809C22.0292 10.742 21.5844 11.4605 21.0648 12.1281C20.8389 12.4179 20.6029 12.6992 20.3278 12.9449C20.2259 13.0364 20.1139 13.111 19.9763 13.1415C19.8252 13.1754 19.7301 13.1279 19.6894 12.9788C19.6656 12.8941 19.6537 12.8026 19.6537 12.7145C19.6537 12.1248 19.6537 11.5384 19.6537 10.9521Z" fill="#5F83AA"/>
</g>
<path d="M19.6534 10.9523C19.6534 11.5386 19.6517 12.1232 19.6551 12.7095C19.6551 12.7977 19.667 12.8892 19.6908 12.9739C19.7332 13.123 19.8266 13.1705 19.9777 13.1366C20.1153 13.1061 20.2256 13.0315 20.3292 12.94C20.6043 12.696 20.8403 12.413 21.0662 12.1232C21.5857 11.4556 22.0289 10.7388 22.4297 9.99317C22.5791 9.71696 22.72 9.43567 22.8627 9.15437C22.99 8.90188 23.1938 8.77479 23.4739 8.77479C24.1107 8.7731 24.7474 8.7731 25.3859 8.77479C25.6134 8.77479 25.768 8.90019 25.7934 9.10014C25.8087 9.21537 25.7832 9.32721 25.7476 9.43736C25.6338 9.78644 25.4606 10.1067 25.284 10.4253C24.8188 11.2556 24.2941 12.047 23.7575 12.8316C23.6302 13.018 23.4994 13.201 23.3873 13.3958C23.2719 13.5958 23.2939 13.7381 23.4502 13.9076C23.6709 14.1465 23.9001 14.377 24.1209 14.6176C24.3637 14.882 24.6014 15.1514 24.834 15.4225C25.1091 15.7428 25.3859 16.0648 25.6491 16.3952C25.8376 16.6307 25.9972 16.8883 26.1059 17.1747C26.1602 17.3187 26.1874 17.4662 26.15 17.6204C26.1059 17.8085 25.9785 17.9118 25.7849 17.9152C25.5998 17.9169 25.4131 17.9169 25.228 17.9169C24.7542 17.9169 24.2788 17.9084 23.8051 17.9203C23.4841 17.9288 23.2277 17.8135 23.0155 17.5865C22.8202 17.378 22.6317 17.1628 22.4365 16.9544C22.0119 16.502 21.5807 16.0597 21.0933 15.6716C20.8862 15.5073 20.6671 15.3564 20.4175 15.2615C20.3054 15.2192 20.19 15.1972 20.0694 15.1988C19.9217 15.2005 19.8249 15.27 19.7689 15.4022C19.7213 15.514 19.7094 15.631 19.7094 15.7496C19.7094 16.2732 19.7128 16.7968 19.706 17.3187C19.7043 17.4085 19.6789 17.5051 19.6381 17.5865C19.56 17.7441 19.4055 17.8085 19.2459 17.8373C19.0353 17.8745 18.8214 17.9017 18.6074 17.9135C17.9639 17.9457 17.3407 17.839 16.7345 17.6254C16.1742 17.4272 15.6563 17.1493 15.169 16.8104C14.6307 16.4359 14.1501 15.9953 13.7121 15.5073C13.3691 15.1243 13.0668 14.7108 12.7714 14.2906C12.3537 13.6941 11.9648 13.0807 11.615 12.4418C11.1481 11.5844 10.7371 10.7032 10.4824 9.75594C10.4264 9.5492 10.3721 9.34247 10.3721 9.12556C10.3721 8.86969 10.5521 8.6782 10.8102 8.67651C11.4452 8.67312 12.0803 8.67142 12.7153 8.67651C12.9497 8.6782 13.1653 8.7409 13.2944 8.9595C13.3521 9.05609 13.4013 9.15776 13.437 9.26282C13.7002 10.0372 14.0245 10.7845 14.4082 11.5064C14.7173 12.0843 15.0569 12.6435 15.4712 13.1535C15.6461 13.3687 15.8312 13.5755 16.0621 13.7364C16.1589 13.8025 16.2608 13.8601 16.3847 13.8551C16.4815 13.8517 16.5494 13.8076 16.5732 13.7127C16.5936 13.6331 16.6123 13.55 16.6123 13.467C16.6157 12.496 16.6191 11.5234 16.6123 10.5524C16.6089 10.1321 16.4577 9.76102 16.181 9.44075C16.1114 9.36111 16.0451 9.27468 15.9959 9.18148C15.8567 8.91374 16.0078 8.67481 16.3117 8.67312C16.5325 8.67142 16.7549 8.67312 16.9756 8.67312C17.7194 8.67312 18.4631 8.67312 19.2068 8.67312C19.2629 8.67312 19.3189 8.6782 19.3749 8.68667C19.5176 8.7104 19.6025 8.79512 19.6279 8.94255C19.6432 9.03236 19.6534 9.12387 19.6534 9.21537C19.6551 9.7983 19.6534 10.3761 19.6534 10.9523Z" fill="white"/>
<defs>
<filter id="filter0_d_29_3" x="0" y="0" width="32.0659" height="32" filterUnits="userSpaceOnUse" color-interpolation-filters="sRGB">
<feFlood flood-opacity="0" result="BackgroundImageFix"/>
<feColorMatrix in="SourceAlpha" type="matrix" values="0 0 0 0 0 0 0 0 0 0 0 0 0 0 0 0 0 0 127 0" result="hardAlpha"/>
<feOffset dx="-2" dy="3"/>
<feGaussianBlur stdDeviation="2"/>
<feComposite in2="hardAlpha" operator="out"/>
<feColorMatrix type="matrix" values="0 0 0 0 0 0 0 0 0 0 0 0 0 0 0 0 0 0 0.24 0"/>
<feBlend mode="normal" in2="BackgroundImageFix" result="effect1_dropShadow_29_3"/>
<feBlend mode="normal" in="SourceGraphic" in2="effect1_dropShadow_29_3" result="shape"/>
</filter>
</defs>
</svg>
